<?xml version="1.0" encoding="utf-8"?>
<!-- Generator: Adobe Illustrator 14.0.0, SVG Export Plug-In . SVG Version: 6.00 Build 43363)  -->
<!DOCTYPE svg PUBLIC "-//W3C//DTD SVG 1.1//EN" "http://www.w3.org/Graphics/SVG/1.1/DTD/svg11.dtd">
<svg version="1.1" id="レイヤー_1" xmlns="http://www.w3.org/2000/svg" xmlns:xlink="http://www.w3.org/1999/xlink" x="0px"
	 y="0px" width="559.864px" height="136.055px" viewBox="0 0 559.864 136.055" enable-background="new 0 0 559.864 136.055"
	 xml:space="preserve">
<symbol  id="新規シンボル" viewBox="-47.218 -41.316 94.435 82.633">
	<path fill="#5E525D" d="M13.693-41.313c-1.112,0-2.179,0.444-2.965,1.23L-1.854-27.501c-1.608,1.669-1.568,4.324,0.101,5.932
		c1.625,1.574,4.202,1.574,5.828,0l9.047-9.044L39.611,7.233c1.349,1.883,3.966,2.318,5.845,0.978
		c1.865-1.329,2.317-3.899,1.029-5.788L17.123-39.515c-0.698-1.02-1.827-1.677-3.066-1.792
		C13.941-41.318,13.814-41.318,13.693-41.313z"/>
	<path fill="#5E525D" d="M18.074,41.316h-50.225c-8.539,0-15.067-6.528-15.067-15.067V-3.889c0-8.538,6.528-15.063,15.067-15.063
		h23.904c2.771,0,5.021,2.252,5.021,5.021c0,2.772-2.25,5.021-5.021,5.021h-23.904c-3.013,0-5.022,2.015-5.022,5.021v31.144
		c0-0.504,0.502-0.504,1.003-0.504L-8.545,6.657c0.499-0.498,1.003-0.498,1.506-0.498c0.501,0,1.006,0,1.504,0.498l27.621,20.094
		c0.507,0,0.507,0.504,0.507,1.003c0.501-0.499,0.501-1.003,0.501-1.505V6.864c0-2.775,2.248-5.023,5.021-5.023
		c2.772,0,5.021,2.248,5.021,5.023v19.385C33.143,34.788,26.618,41.316,18.074,41.316z M19.08,30.768L-7.036,11.681l-26.121,19.087
		h-0.499c0.499,0.501,1.003,0.501,1.504,0.501h50.225c0.504,0,1.006,0,1.507-0.501H19.08z"/>
</symbol>
<use xlink:href="#新規シンボル"  width="94.435" height="82.633" x="-47.218" y="-41.316" transform="matrix(1 0 0 -1 82.5298 71.811)" overflow="visible"/>
<g>
	<g>
		<path fill="#5E525D" d="M145.963,84.853V43.158h21.012v3.831h-16.47v14.829h15.157v3.775h-15.157v19.26H145.963z"/>
		<path fill="#5E525D" d="M177.369,84.853h-4.542V41.079h4.542V84.853z"/>
		<path fill="#5E525D" d="M206.149,83.595c-1.696,0.82-4.815,1.86-9.356,1.86c-8.7,0-13.898-6.128-13.898-15.048
			c0-9.356,5.253-16.087,13.296-16.087c9.192,0,11.545,8.427,11.545,13.625c0,1.04-0.055,1.806-0.109,2.517h-20.3
			c0.055,8.262,4.76,11.381,10.123,11.381c3.721,0,5.964-0.767,7.825-1.532L206.149,83.595z M203.249,67.07
			c0.055-4.049-1.642-9.302-7.497-9.302c-5.472,0-7.879,5.198-8.317,9.302H203.249z"/>
		<path fill="#5E525D" d="M234.545,55.032l-9.85,14.445l10.123,15.375h-5.198l-4.487-6.949c-1.094-1.805-2.08-3.447-3.174-5.362
			h-0.109c-0.93,1.86-2.024,3.502-3.174,5.362l-4.377,6.949h-5.034l10.232-15.211l-9.74-14.61h5.089l4.323,6.621
			c1.094,1.696,2.024,3.229,3.009,4.979h0.165c0.93-1.751,1.97-3.393,3.009-4.979l4.213-6.621H234.545z"/>
		<path fill="#5E525D" d="M271.216,83.595c-1.916,0.93-5.636,1.86-10.396,1.86c-10.725,0-19.37-6.949-19.37-21.066
			c0-13.461,8.372-21.833,20.574-21.833c4.979,0,7.879,1.04,9.193,1.696l-1.204,3.83c-1.915-0.93-4.596-1.696-7.879-1.696
			c-9.466,0-15.923,6.347-15.923,17.838c0,10.944,5.91,17.4,15.649,17.4c3.173,0,6.292-0.711,8.372-1.695L271.216,83.595z"/>
		<path fill="#5E525D" d="M301.636,69.696c0,11.107-7.332,15.813-13.953,15.813c-7.66,0-13.569-5.745-13.569-15.376
			c0-10.177,6.347-15.813,13.953-15.813C296.219,54.32,301.636,60.558,301.636,69.696z M287.902,57.877
			c-6.456,0-9.137,6.347-9.137,12.093c0,6.621,3.666,11.983,9.028,11.983c5.417,0,9.193-5.362,9.193-12.093
			C296.986,64.553,294.414,57.877,287.902,57.877z"/>
		<path fill="#5E525D" d="M331.017,84.853h-4.541V67.234c0-4.87-1.751-9.138-6.949-9.138c-3.886,0-7.825,3.283-7.825,8.481v18.275
			h-4.542v-22.16c0-3.064-0.109-5.308-0.219-7.715h4.05l0.273,4.87h0.109c1.478-2.9,4.925-5.526,9.575-5.526
			c3.722,0,10.068,2.244,10.068,12.366V84.853z"/>
		<path fill="#5E525D" d="M343.49,84.853h-4.541V58.588h-4.104v-3.557h4.104v-1.806c0-7.497,4.049-12.804,12.257-12.804
			c2.407,0,5.636,0.821,7.113,1.915l-1.368,3.502c-1.423-0.985-3.775-1.696-6.073-1.696c-7.388,0-7.388,6.621-7.388,10.889h16.689
			v29.821h-4.542V58.588H343.49V84.853z"/>
		<path fill="#5E525D" d="M381.407,58.862c-0.492-0.055-0.984-0.109-1.642-0.109c-4.924,0-7.441,4.87-7.441,9.904v16.196h-4.541
			V63.951c0-3.173-0.055-6.074-0.22-8.919h3.995l0.219,5.746h0.164c1.313-3.721,4.432-6.402,8.099-6.402
			c0.492,0,0.875,0.109,1.367,0.164V58.862z"/>
		<path fill="#5E525D" d="M425.947,84.853h-4.487V67.617c0-5.8-2.079-9.521-6.566-9.521c-3.666,0-7.004,3.447-7.004,7.989v18.768
			h-4.486V66.468c0-4.76-2.024-8.372-6.238-8.372c-3.885,0-7.332,3.831-7.332,8.481v18.275h-4.486v-22.16
			c0-3.064-0.11-5.253-0.22-7.715h3.995l0.273,4.815h0.164c1.642-2.9,4.377-5.472,9.083-5.472c3.885,0,6.895,2.408,8.153,5.964
			h0.109c1.97-3.557,4.979-5.964,9.575-5.964c3.666,0,9.467,2.353,9.467,12.585V84.853z"/>
		<path fill="#5E525D" d="M477.883,84.853h-4.486l-1.04-18.768c-0.328-5.964-0.766-13.68-0.711-17.948h-0.165
			c-1.367,4.706-3.063,9.849-5.088,15.649l-7.442,20.902h-3.338l-6.949-20.464c-2.024-6.019-3.611-11.271-4.76-16.087h-0.164
			c-0.109,5.089-0.438,11.983-0.821,18.385l-1.149,18.33h-4.322l2.9-41.695h5.581l7.332,21.176c1.751,5.198,3.119,9.63,4.213,13.953
			h0.165c1.039-4.214,2.462-8.591,4.322-13.953l7.605-21.176h5.691L477.883,84.853z"/>
		<path fill="#5E525D" d="M504.036,77.739c0,2.463,0.055,5.035,0.438,7.113h-4.158l-0.438-3.83h-0.164
			c-1.532,2.354-4.596,4.487-8.81,4.487c-5.69,0-8.7-4.159-8.7-8.481c0-7.168,6.238-11.053,17.291-10.998
			c0-2.517,0-8.208-6.785-8.208c-2.571,0-5.253,0.711-7.277,2.134l-1.095-3.119c2.408-1.587,5.746-2.517,9.084-2.517
			c8.426,0,10.615,5.964,10.615,11.874V77.739z M499.548,69.368c-5.636,0-12.694,0.821-12.694,7.114c0,3.83,2.407,5.526,5.144,5.526
			c4.432,0,7.551-3.393,7.551-7.004V69.368z"/>
		<path fill="#5E525D" d="M513.665,49.779c-1.751,0-2.955-1.368-2.955-3.119c0-1.696,1.259-3.064,3.01-3.064
			c1.806,0,2.955,1.368,2.955,3.064C516.674,48.575,515.416,49.779,513.665,49.779z M515.962,84.853h-4.541V55.032h4.541V84.853z"/>
		<path fill="#5E525D" d="M528.163,84.853h-4.541V41.079h4.541V84.853z"/>
	</g>
</g>
</svg>
