<?xml version="1.0" encoding="utf-8"?>
<!-- Generator: Adobe Illustrator 14.0.0, SVG Export Plug-In . SVG Version: 6.00 Build 43363)  -->
<!DOCTYPE svg PUBLIC "-//W3C//DTD SVG 1.1//EN" "http://www.w3.org/Graphics/SVG/1.1/DTD/svg11.dtd">
<svg version="1.1" id="レイヤー_1" xmlns="http://www.w3.org/2000/svg" xmlns:xlink="http://www.w3.org/1999/xlink" x="0px"
	 y="0px" width="197.146px" height="116.38px" viewBox="23.536 26.334 197.146 116.38"
	 enable-background="new 23.536 26.334 197.146 116.38" xml:space="preserve">
<symbol  id="新規シンボル" viewBox="-47.217 -41.317 94.435 82.633">
	<path fill="#5E525D" d="M13.693-41.313c-1.112,0-2.179,0.444-2.965,1.23L-1.854-27.501c-1.608,1.669-1.568,4.324,0.101,5.932
		c1.625,1.574,4.202,1.574,5.828,0l9.047-9.044L39.611,7.233c1.349,1.883,3.966,2.317,5.845,0.978
		c1.865-1.329,2.317-3.899,1.029-5.788L17.124-39.515c-0.698-1.021-1.827-1.678-3.066-1.792
		C13.941-41.318,13.814-41.318,13.693-41.313z"/>
	<path fill="#5E525D" d="M18.075,41.316H-32.15c-8.539,0-15.067-6.528-15.067-15.067V-3.889c0-8.538,6.528-15.063,15.067-15.063
		h23.904c2.771,0,5.021,2.252,5.021,5.021c0,2.771-2.25,5.021-5.021,5.021H-32.15c-3.013,0-5.022,2.016-5.022,5.021v31.144
		c0-0.504,0.502-0.504,1.003-0.504L-8.544,6.657c0.499-0.498,1.003-0.498,1.506-0.498c0.501,0,1.006,0,1.504,0.498l27.621,20.094
		c0.507,0,0.507,0.504,0.507,1.003c0.501-0.499,0.501-1.003,0.501-1.505V6.864c0-2.775,2.248-5.023,5.021-5.023
		c2.772,0,5.021,2.248,5.021,5.023v19.385C33.144,34.788,26.619,41.316,18.075,41.316z M19.081,30.768L-7.036,11.681l-26.121,19.087
		h-0.499c0.499,0.501,1.003,0.501,1.504,0.501h50.225c0.504,0,1.006,0,1.507-0.501H19.081z"/>
</symbol>
<use xlink:href="#新規シンボル"  width="94.435" height="82.633" x="-47.217" y="-41.317" transform="matrix(1 0 0 -1 127.4983 67.6501)" overflow="visible"/>
<g>
	<g>
		<path fill="#5E525D" d="M23.536,142.714v-21.507h10.838v1.977h-8.495v7.648h7.817v1.947h-7.817v9.935H23.536z"/>
		<path fill="#5E525D" d="M39.736,142.714h-2.343v-22.579h2.343V142.714z"/>
		<path fill="#5E525D" d="M54.581,142.065c-0.875,0.424-2.483,0.961-4.826,0.961c-4.487,0-7.169-3.162-7.169-7.763
			c0-4.826,2.71-8.299,6.857-8.299c4.741,0,5.955,4.348,5.955,7.028c0,0.536-0.027,0.931-0.056,1.298H44.872
			c0.027,4.264,2.455,5.871,5.222,5.871c1.919,0,3.076-0.396,4.036-0.791L54.581,142.065z M53.085,133.542
			c0.027-2.089-0.848-4.798-3.866-4.798c-2.822,0-4.064,2.681-4.29,4.798H53.085z"/>
		<path fill="#5E525D" d="M69.229,127.333l-5.08,7.451l5.223,7.931h-2.683l-2.313-3.584c-0.564-0.932-1.073-1.777-1.639-2.767
			h-0.056c-0.479,0.96-1.045,1.807-1.638,2.767l-2.258,3.584h-2.598l5.278-7.847l-5.024-7.535h2.625l2.23,3.415
			c0.563,0.874,1.044,1.665,1.552,2.568h0.085c0.479-0.903,1.017-1.75,1.553-2.568l2.174-3.415H69.229z"/>
		<path fill="#5E525D" d="M88.145,142.065c-0.987,0.479-2.908,0.961-5.362,0.961c-5.532,0-9.991-3.585-9.991-10.867
			c0-6.943,4.317-11.262,10.611-11.262c2.568,0,4.064,0.536,4.742,0.875l-0.621,1.976c-0.987-0.479-2.371-0.875-4.064-0.875
			c-4.882,0-8.212,3.273-8.212,9.201c0,5.646,3.048,8.976,8.07,8.976c1.638,0,3.246-0.366,4.318-0.875L88.145,142.065z"/>
		<path fill="#5E525D" d="M103.835,134.896c0,5.729-3.781,8.156-7.197,8.156c-3.951,0-6.999-2.964-6.999-7.932
			c0-5.249,3.273-8.156,7.197-8.156C101.041,126.965,103.835,130.183,103.835,134.896z M96.751,128.8
			c-3.33,0-4.713,3.273-4.713,6.237c0,3.415,1.891,6.182,4.655,6.182c2.794,0,4.742-2.767,4.742-6.237
			C101.437,132.244,100.109,128.8,96.751,128.8z"/>
		<path fill="#5E525D" d="M118.99,142.714h-2.343v-9.088c0-2.512-0.902-4.714-3.585-4.714c-2.004,0-4.036,1.694-4.036,4.375v9.427
			h-2.343v-11.431c0-1.581-0.057-2.737-0.113-3.979h2.09l0.142,2.512h0.057c0.763-1.496,2.54-2.852,4.938-2.852
			c1.92,0,5.193,1.157,5.193,6.378V142.714z"/>
		<path fill="#5E525D" d="M125.424,142.714h-2.342v-13.548h-2.117v-1.834h2.117V126.4c0-3.867,2.088-6.604,6.322-6.604
			c1.24,0,2.906,0.423,3.669,0.987l-0.705,1.807c-0.734-0.508-1.947-0.875-3.134-0.875c-3.811,0-3.811,3.416-3.811,5.617h8.61
			v15.382h-2.345v-13.548h-6.266V142.714z"/>
		<path fill="#5E525D" d="M144.983,129.308c-0.254-0.028-0.508-0.058-0.848-0.058c-2.539,0-3.838,2.513-3.838,5.108v8.354h-2.342
			v-10.78c0-1.638-0.029-3.134-0.113-4.602h2.061l0.111,2.964h0.086c0.678-1.92,2.285-3.303,4.178-3.303
			c0.255,0,0.451,0.057,0.705,0.085V129.308L144.983,129.308z"/>
		<path fill="#5E525D" d="M167.958,142.714h-2.314v-8.891c0-2.991-1.074-4.911-3.389-4.911c-1.892,0-3.611,1.778-3.611,4.121v9.681
			h-2.313v-9.482c0-2.455-1.045-4.318-3.22-4.318c-2.004,0-3.78,1.977-3.78,4.375v9.427h-2.314v-11.431
			c0-1.581-0.057-2.709-0.113-3.979h2.062l0.141,2.482h0.086c0.847-1.496,2.259-2.822,4.687-2.822c2.002,0,3.555,1.242,4.205,3.076
			h0.057c1.017-1.834,2.568-3.076,4.938-3.076c1.893,0,4.885,1.215,4.885,6.491v9.257H167.958z"/>
		<path fill="#5E525D" d="M194.747,142.714h-2.314l-0.535-9.681c-0.17-3.076-0.396-7.057-0.367-9.258h-0.086
			c-0.704,2.427-1.579,5.081-2.625,8.072l-3.838,10.781h-1.723l-3.584-10.557c-1.045-3.104-1.863-5.813-2.455-8.298h-0.084
			c-0.057,2.625-0.227,6.182-0.424,9.482l-0.594,9.455h-2.229l1.496-21.507h2.879l3.781,10.923c0.904,2.683,1.608,4.969,2.174,7.197
			h0.084c0.537-2.173,1.271-4.432,2.23-7.197l3.922-10.923h2.938L194.747,142.714z"/>
		<path fill="#5E525D" d="M208.237,139.045c0,1.271,0.027,2.598,0.226,3.669h-2.146l-0.227-1.976h-0.084
			c-0.791,1.214-2.371,2.313-4.545,2.313c-2.935,0-4.486-2.145-4.486-4.375c0-3.696,3.217-5.7,8.918-5.673
			c0-1.298,0-4.232-3.5-4.232c-1.326,0-2.709,0.365-3.754,1.101l-0.563-1.608c1.241-0.818,2.965-1.299,4.686-1.299
			c4.348,0,5.477,3.076,5.477,6.125L208.237,139.045L208.237,139.045z M205.922,134.727c-2.908,0-6.549,0.423-6.549,3.669
			c0,1.976,1.242,2.852,2.653,2.852c2.285,0,3.896-1.75,3.896-3.613V134.727L205.922,134.727z"/>
		<path fill="#5E525D" d="M213.204,124.623c-0.904,0-1.525-0.706-1.525-1.607c0-0.875,0.65-1.581,1.553-1.581
			c0.933,0,1.525,0.706,1.525,1.581C214.756,124.001,214.106,124.623,213.204,124.623z M214.389,142.714h-2.344v-15.382h2.344
			V142.714z"/>
		<path fill="#5E525D" d="M220.682,142.714h-2.344v-22.579h2.344V142.714z"/>
	</g>
</g>
</svg>
