<svg version="1.1" xmlns="http://www.w3.org/2000/svg" viewBox="0 0 1125.6186060406599 549.4903132479833" width="2251.2372120813197" height="1098.9806264959666">
  <!-- svg-source:excalidraw -->
  
  <defs>
    <style>
      @font-face {
        font-family: "Virgil";
        src: url("https://excalidraw.com/Virgil.woff2");
      }
      @font-face {
        font-family: "Cascadia";
        src: url("https://excalidraw.com/Cascadia.woff2");
      }
    </style>
  </defs>
  <rect x="0" y="0" width="1125.6186060406599" height="549.4903132479833" fill="#ffffff"></rect><g stroke-linecap="round" transform="translate(176.88915223863455 212.54070257462308) rotate(0 177.8300496849339 50.64779896089908)"><path d="M0 0 C0 0, 0 0, 0 0 M0 0 C0 0, 0 0, 0 0 M0.19 13.63 C3.45 7.94, 8.11 2.52, 9.86 -0.96 M0.43 12.24 C2.45 8.26, 6.46 4.73, 11.06 -0.06 M0.78 26.08 C8.12 15.18, 11.01 9.81, 21.41 1.46 M1.24 23.86 C4.82 18.36, 9.54 13.37, 22.09 0.31 M0.73 38.57 C6.63 29.09, 16.27 19.23, 33.57 -2.04 M-0.44 36.83 C6.03 29.42, 11.7 21.72, 32.77 -0.32 M-2.07 49.16 C13.06 32.13, 27.85 18.19, 44.26 0.73 M0.13 48.92 C10.77 35.07, 21.69 23.44, 43.31 -0.17 M1 60.61 C15.21 42.67, 34.28 24.15, 54.58 -0.3 M0.95 61.76 C13.08 47.52, 25.84 32.38, 53.52 -0.6 M1.72 72.92 C25.37 44.25, 52.57 15.88, 64.47 -0.51 M0.59 72.82 C22.9 47.37, 46.65 20.2, 64.42 -0.28 M2.2 85.3 C22.62 56.46, 46.37 31.58, 74.53 -1.36 M1.14 86.03 C20.47 62.13, 39.24 38.87, 74.92 -0.21 M0.05 96.1 C24.46 70.08, 46.87 42.29, 85.8 -1.27 M0.13 97.46 C23.36 70.39, 47.47 41.92, 85.35 0.12 M3.38 103.71 C37.16 67.27, 71.75 27.98, 97.58 -0.38 M5.34 104.94 C25.41 81.1, 45.5 57.3, 96.09 -0.32 M16.84 103.31 C48.85 65.56, 82.41 29.34, 107.26 0.63 M15.58 104.5 C42.57 74.74, 69.83 43.83, 107.15 -0.2 M23.41 106.34 C44.24 83.17, 66.11 59.29, 115.47 0.46 M24.34 104.6 C44.42 80.7, 65.94 58.02, 116.1 -0.19 M37.37 106.31 C68.01 68.98, 103.58 28.35, 128.51 -0.62 M35.47 105.66 C59.33 78.13, 81.95 50.81, 126.31 -0.06 M46.23 103.34 C82.82 65.59, 116.37 24.43, 136.22 -1.07 M46.89 105.25 C67.9 79.78, 88.85 55.4, 137.59 0.78 M55.14 104.29 C92.06 66.2, 127.55 25.11, 146.44 0.11 M57.86 106.03 C90.87 64.67, 124.41 26.46, 148.42 0.1 M66.13 104.73 C92.66 79.51, 117.01 50.23, 158.15 -0.72 M67.9 104.38 C104.61 63.33, 139.86 23.33, 157.86 0.59 M79.84 104.11 C99.74 78.57, 123.11 54.08, 169.28 1.42 M77.36 105.31 C100.01 80.02, 122.77 54.75, 169.18 -0.28 M87.37 106.98 C122.38 67.63, 155.13 26.94, 178.52 -0.77 M89.05 104.38 C113.99 76.29, 138.91 47.43, 180.45 0.64 M100.1 106.13 C137.71 64.87, 173.7 24.06, 189.17 -1.61 M98.82 104.58 C134.6 66.57, 167.49 28.03, 190.1 0.14 M109.48 103.81 C141.86 70.09, 173.57 35.23, 202.88 0.71 M109.14 104.28 C134.42 77.07, 159.08 50.09, 201.53 -0.52 M120.84 106.9 C152.07 67.1, 188.11 29.35, 211.54 1.32 M121.73 104.07 C147.68 73.15, 176.81 41.96, 212.75 0.35 M133.25 104.12 C156.37 72.37, 183.59 41.82, 223.04 -0.12 M131.09 104.75 C166.3 65.81, 199.3 26.19, 222.88 -0.23 M141.26 105.2 C172.59 71.64, 201.52 37.51, 233.11 1.72 M141.16 104.14 C166.25 76.52, 190.53 48.81, 233.83 -0.02 M150.78 106.06 C177.76 71.69, 206.46 42.22, 243.11 1.1 M152.89 105.09 C189.85 62.67, 225.31 20.9, 242.86 -0.66 M164.84 104.03 C193.23 71.8, 220.19 37.41, 255.87 -1.67 M162.82 104.3 C193.64 69.76, 224.36 36.1, 254.17 0.27 M175.44 102.99 C202.37 73.2, 230.28 39.48, 265.48 -1.02 M174.68 104.27 C208.11 64.95, 244.26 24.29, 265.49 0.14 M185.34 104.61 C206.65 77.2, 226.81 55.05, 277.1 -0.92 M184 104.19 C209.77 77.35, 232.99 50.28, 275.68 -0.85 M195.88 105.48 C233.08 65.14, 267.35 23.84, 284.8 0.31 M195.69 103.86 C225.99 68.81, 258.41 32.61, 287.34 -0.73 M204.8 104.36 C232.3 74.77, 258.24 46.11, 295.35 -0.84 M206.62 104.59 C229.5 77.31, 252.33 49.39, 296.39 0.14 M218.03 103.32 C247.4 70.85, 276.68 33.23, 306.04 -1.87 M217.25 105.11 C251.28 64.73, 285.22 25.15, 306.64 -0.03 M227.53 102.95 C247.79 78.59, 269.01 55.22, 316.47 -1.06 M226.2 104.44 C246.65 82.16, 265.66 59.48, 317.43 -0.56 M239.1 103.53 C257.51 81.26, 279.86 56.28, 330.41 -2.31 M237.83 103.88 C265.02 70.83, 292.38 39.14, 328.2 0.63 M250.16 104.25 C269.89 80, 288.17 60.71, 339.57 -1.96 M248.88 103.81 C271.49 79.5, 292.72 54.72, 340.07 -1.12 M256.94 105.1 C279.96 77.17, 307.44 50.14, 348.78 -0.8 M257.33 104.44 C281 77.32, 304.91 51.67, 349.8 0.5 M270.9 107.1 C300.51 69.1, 329.23 32.25, 356.43 4.31 M269.73 105.65 C301.96 66.38, 334.93 30.05, 358.03 1.92 M278.62 105.96 C308.72 70.01, 339.73 34.14, 357.77 15.19 M278.73 105.43 C304.63 79.26, 327 52.22, 357.32 14.1 M290.23 104.3 C308.34 85.97, 323.8 65.33, 358.99 27.89 M290.42 105.8 C305.64 85.86, 322.11 67.26, 358.04 26.81 M302.56 105.55 C322.48 79.33, 346.4 52.17, 358.75 39.78 M301.16 105.41 C322.9 80.5, 343.15 55.77, 358.69 39.45 M312.95 105.14 C328.93 84.68, 345.53 62.82, 360.57 48.92 M312.25 104.51 C321.75 94.84, 331.56 83.18, 358.03 51.15 M323.09 103.74 C328.65 95.46, 337.68 87.22, 357.94 62.04 M321.5 104.81 C334.23 91.08, 347.2 75.06, 359.03 64.42 M332.78 106.37 C340.06 98.15, 348.43 86.1, 356.78 76.64 M331.8 104.42 C339.49 97.2, 344.25 90.61, 359.05 76.08 M343.82 103.64 C349.03 99.26, 353.8 91.97, 357.29 88.8 M342.75 105.71 C347.2 100.29, 351.59 96.48, 358.53 88.61" stroke="#fab005" stroke-width="1" fill="none"></path><path d="M-0.24 -0.89 C116.5 -1.22, 231.02 0.09, 356.52 -0.7 M-0.29 0.02 C77.86 0.07, 155.16 0.36, 356.01 -0.6 M354.2 -0.09 C358.06 38.58, 355.86 74.98, 356.7 102.03 M356.12 -0.23 C354.88 22.41, 354.94 46.53, 354.97 101.51 M356.83 101.22 C247.2 99.91, 140.31 101.17, -0.96 100.96 M355.6 100.86 C273.9 99.24, 192.11 99.45, 0.24 101.91 M-0.32 102.67 C1.16 71.3, -1.79 44.23, -0.08 -0.21 M0.55 101.46 C-1.13 62.73, -0.99 25.02, 0.44 0.59" stroke="#e67700" stroke-width="2" fill="none"></path></g><g stroke-linecap="round" transform="translate(568.3527498109474 213.57465952630287) rotate(0 182.33207625923615 47.27127903017242)"><path d="M0 0 C0 0, 0 0, 0 0 M0 0 C0 0, 0 0, 0 0 M-0.75 12.59 C5.52 8.05, 9.19 2.78, 9.58 -0.9 M0.36 12.84 C3.84 8.24, 7.04 3.88, 11.38 -0.59 M-0.07 24.53 C9.44 16.3, 15.87 6.42, 22.41 -1.93 M-0.4 24.17 C5.36 17.61, 10.51 12.87, 21.48 0.1 M-1.66 35.2 C4.95 29.58, 13.75 19.34, 31.15 -2.1 M-0.4 36.73 C9.65 22.8, 22.13 11.05, 31.64 -0.83 M0.43 48.82 C15.56 29.69, 33.03 10.94, 42.14 0.01 M-0.4 49.76 C15.96 30.14, 32.82 11.71, 43.11 -0.27 M-0.18 60.86 C15.48 43.96, 29.19 30.14, 51.68 -0.13 M0.31 60.58 C11.47 46.28, 24.37 32.63, 53.79 -0.84 M-0.03 72.35 C19.78 51.62, 40.66 28.14, 63.58 -2.05 M0.19 73.7 C20.32 50.63, 39.99 27.93, 63 -0.05 M-0.62 85.86 C21.25 62.4, 39.21 39.84, 73 0.94 M-0.69 84.41 C21.89 61.75, 43.42 35.87, 75.04 -0.46 M0.67 97.13 C24.84 68.26, 47.55 42.38, 84.21 0.89 M2.36 95.24 C23.43 69.64, 44.98 44.66, 85.84 -0.73 M13.69 96.25 C41.71 62.29, 69.27 28.02, 94.48 0.46 M12.4 94.81 C31.38 72.07, 52.8 48.91, 96.51 0.27 M23.65 96 C42.51 75.42, 57.17 55.41, 107.8 0.05 M22.91 94.9 C51.79 60.37, 83.1 24.77, 105.95 0.34 M35.25 96.88 C54.38 74.58, 70.11 52.76, 118.11 -0.23 M34.58 95.15 C62.29 64.14, 89.31 30.98, 115.78 0.68 M42.59 95.57 C64.29 72.52, 86.52 47.38, 125.71 -0.39 M43.07 96.33 C69.97 67.1, 94.62 37.52, 127.57 -0.3 M53.65 97.13 C78.47 65.59, 102.95 37.43, 137.14 1.15 M54.23 96.21 C73.36 74.39, 94.3 51.35, 138.49 -0.49 M66.12 96.73 C83.79 76.2, 99.21 52.31, 149.6 -0.28 M65.78 95.96 C84.29 75.08, 102.61 53.12, 148.54 -0.23 M75.89 95.78 C94.68 76.64, 112.5 56.76, 158.12 -1.64 M74.5 96.1 C100.77 68.94, 126.57 38.62, 159.46 0.37 M84.16 95.9 C105.17 74.58, 122.51 54.11, 169.4 -1 M85.16 95.1 C106.88 72.11, 127.49 49.33, 169.34 0.36 M95.29 94.08 C120.29 65.39, 146.85 38.06, 181.56 -0.36 M97.17 96.33 C121.99 66.6, 148.82 36.68, 180.23 -0.21 M108.59 95.91 C132.69 67.63, 155.18 42.88, 190 1.55 M108.09 95.94 C138.03 63.31, 166.97 29.69, 190.71 0.69 M116.12 94.74 C145.43 65.1, 172.73 33.82, 203.22 -1.56 M118.3 95.79 C147.86 60.34, 177.54 25.25, 201.48 0.92 M130.55 96.85 C159.58 59.55, 192.72 21.66, 212.58 -0.33 M128.55 95.33 C151.78 71.23, 173.4 45.36, 211.99 -0.9 M138.92 96.69 C167.23 62.41, 196.77 29.14, 224.16 -0.57 M138.56 96.53 C170.86 59.89, 201.87 24.14, 222 0.54 M150.48 94.02 C176.44 64.81, 207.39 30.12, 232.57 -0.09 M150.62 95.76 C167.53 77.01, 185.61 55.06, 234.16 0.09 M162.5 97.1 C180.21 74.14, 198.24 50.41, 244.73 0.5 M160.2 96.71 C191.89 61.5, 223.37 24.23, 243.65 0.1 M172.09 95.91 C202.25 63.08, 228.88 27.53, 253.71 0.99 M171.52 96.33 C198.85 62.4, 228.13 29.06, 254.77 -0.71 M181.99 97.33 C212.44 58.02, 243.52 20.94, 266.53 -1.25 M182.13 95.67 C214.15 57, 245.58 20.15, 264.46 0.67 M192.38 94.28 C214.91 69.85, 236.62 42.46, 274 -0.1 M192.54 95.82 C219.39 65.21, 245.42 34.6, 275 0.46 M202.75 96.98 C235.73 59.43, 267.99 20.38, 286.48 0.51 M202.82 94.84 C234.53 58.56, 267.07 22.61, 285.52 -0.03 M215.62 94.07 C240.38 66.43, 267.12 31.72, 295.74 -2.19 M214.13 95.63 C239.25 66.39, 265.88 35.45, 296.65 0.52 M222.45 95.85 C255.09 63.7, 281.82 28.28, 306.75 -0.67 M223.38 94.84 C252.19 65.3, 280.34 33.39, 308.06 -0.65 M235.37 95.44 C263.59 57.3, 294.6 24.79, 319.5 -1.87 M234.79 94.8 C267.76 57.25, 300.32 18.31, 319.11 0.51 M245.05 95.97 C278.27 57.77, 309.8 21.8, 328.81 -2.04 M246.51 96.41 C270.85 67.81, 294.46 38.35, 328.4 -1.19 M256.47 95.79 C276.31 70.45, 299.92 47.4, 338.14 0.48 M256.18 95.02 C289.79 55.92, 321.92 18.8, 340.38 0.64 M266.77 95.6 C295.2 62.12, 321.62 32.59, 350.74 -0.85 M267.54 95.41 C298.05 58.27, 329.75 23.34, 350.31 0.74 M276.38 96.47 C297.36 68.74, 324.34 40.98, 358.13 -0.55 M277.38 96.37 C293.97 76.51, 309.45 57.85, 359.43 -0.01 M285.47 95.95 C304.55 76.15, 324.54 51.68, 369.27 3.6 M286.74 96.64 C303.54 77.03, 321.22 59.95, 368.04 2.93 M297.82 97.81 C319.04 70.47, 337.25 49.83, 367.08 14.7 M298.57 95.31 C316.94 74.33, 337.66 53.17, 368.68 15.62 M309.25 96.2 C322.66 79.18, 335.34 65.48, 367.29 28.6 M308.96 95.74 C332.44 70, 353.98 45.09, 368.84 28.17 M318.8 97.6 C327.97 84.49, 342.33 70.89, 367.28 41.22 M320.06 96.19 C335.09 78.01, 351.62 59.87, 368.54 39.86 M330.53 96 C341.11 81.29, 351.15 71.49, 369.1 53.41 M330.69 96.76 C338.66 86.27, 347.57 74.02, 367.18 52.65 M341.3 94.11 C350.01 83.84, 359.53 73.5, 367.92 63.19 M339.92 95.26 C347.68 90.04, 352.84 81.88, 368.69 65.16 M350.65 94.49 C354.36 90.41, 362.75 82.98, 367.9 75.39 M351.68 96.15 C356.66 88.36, 362.82 82.09, 369.25 77.04 M361.2 96.36 C363.55 93.84, 366.69 90.35, 367.49 89.1 M362.09 96.16 C363.79 93.65, 366.58 90.35, 368.44 88.63" stroke="#fab005" stroke-width="1" fill="none"></path><path d="M1.19 0.42 C124.56 -0.94, 249.76 -0.22, 365.55 0.88 M-0.49 0.11 C102.12 -0.26, 205.96 0.61, 365.23 0.45 M363.8 0.73 C364.54 25.69, 363.74 50.53, 364.37 95.71 M363.91 -0.46 C365.52 24.76, 365.54 50.63, 364.71 95.12 M365.67 93.63 C238.43 97.15, 114.67 97.77, -0.74 95.3 M364.44 94.64 C244.92 94.65, 126.56 94.27, -0.28 94.08 M-1.59 96.36 C-0.61 62.6, 1.22 25.98, -1.99 -0.13 M-0.19 94.69 C-0.8 60.74, 1.05 26.99, 0.3 -0.25" stroke="#e67700" stroke-width="2" fill="none"></path></g><g stroke-linecap="round"><g transform="translate(145.42236819535879 263.593262035364) rotate(0 420.52843357131223 0.017272891471293406)"><path d="M-0.44 -0.66 C139.26 -1, 699.09 -1.46, 839.29 -1.57 M1.52 1.61 C141.51 1.45, 701.71 0.87, 841.5 0.02" stroke="#000000" stroke-width="4" fill="none"></path></g><g transform="translate(145.42236819535879 263.593262035364) rotate(0 420.52843357131223 0.017272891471293406)"><path d="M812.24 8.78 C824.4 7.3, 835.7 2.32, 840.31 -0.94 M813.63 10.13 C820.36 8.09, 828.08 6.33, 841.77 0.5" stroke="#000000" stroke-width="4" fill="none"></path></g><g transform="translate(145.42236819535879 263.593262035364) rotate(0 420.52843357131223 0.017272891471293406)"><path d="M812.18 -11.74 C824.44 -5.27, 835.76 -2.3, 840.31 -0.94 M813.56 -10.39 C820.38 -7.39, 828.12 -4.1, 841.77 0.5" stroke="#000000" stroke-width="4" fill="none"></path></g></g><g stroke-linecap="round" transform="translate(215.23707997808265 226.20947131496587) rotate(0 33.207258482693874 34.10475195519916)"><path d="M66.41 34.1 C66.41 35.88, 66.28 37.68, 66.01 39.44 C65.73 41.2, 65.32 42.95, 64.79 44.64 C64.25 46.34, 63.58 48, 62.8 49.59 C62.01 51.17, 61.09 52.71, 60.07 54.15 C59.05 55.59, 57.91 56.96, 56.69 58.22 C55.46 59.48, 54.13 60.65, 52.73 61.7 C51.33 62.74, 49.83 63.68, 48.28 64.49 C46.74 65.3, 45.12 65.99, 43.47 66.54 C41.82 67.09, 40.11 67.51, 38.4 67.79 C36.69 68.07, 34.94 68.21, 33.21 68.21 C31.48 68.21, 29.72 68.07, 28.01 67.79 C26.3 67.51, 24.59 67.09, 22.95 66.54 C21.3 65.99, 19.67 65.3, 18.13 64.49 C16.59 63.68, 15.09 62.74, 13.69 61.7 C12.29 60.65, 10.95 59.48, 9.73 58.22 C8.5 56.96, 7.36 55.59, 6.34 54.15 C5.32 52.71, 4.41 51.17, 3.62 49.59 C2.83 48, 2.16 46.34, 1.63 44.64 C1.09 42.95, 0.68 41.2, 0.41 39.44 C0.14 37.68, 0 35.88, 0 34.1 C0 32.33, 0.14 30.53, 0.41 28.77 C0.68 27.01, 1.09 25.26, 1.63 23.57 C2.16 21.87, 2.83 20.21, 3.62 18.62 C4.41 17.04, 5.32 15.5, 6.34 14.06 C7.36 12.62, 8.5 11.25, 9.73 9.99 C10.95 8.73, 12.29 7.56, 13.69 6.51 C15.09 5.47, 16.59 4.52, 18.13 3.72 C19.67 2.91, 21.3 2.22, 22.95 1.67 C24.59 1.12, 26.3 0.7, 28.01 0.42 C29.72 0.14, 31.48 0, 33.21 0 C34.94 0, 36.69 0.14, 38.4 0.42 C40.11 0.7, 41.82 1.12, 43.47 1.67 C45.12 2.22, 46.74 2.91, 48.28 3.72 C49.83 4.52, 51.33 5.47, 52.73 6.51 C54.13 7.56, 55.46 8.73, 56.69 9.99 C57.91 11.25, 59.05 12.62, 60.07 14.06 C61.09 15.5, 62.01 17.04, 62.8 18.62 C63.58 20.21, 64.25 21.87, 64.79 23.57 C65.32 25.26, 65.73 27.01, 66.01 28.77 C66.28 30.53, 66.35 33.22, 66.41 34.1 C66.48 34.99, 66.48 33.22, 66.41 34.1" stroke="none" stroke-width="0" fill="#ffffff"></path><path d="M66.41 34.1 C66.41 35.88, 66.28 37.68, 66.01 39.44 C65.73 41.2, 65.32 42.95, 64.79 44.64 C64.25 46.34, 63.58 48, 62.8 49.59 C62.01 51.17, 61.09 52.71, 60.07 54.15 C59.05 55.59, 57.91 56.96, 56.69 58.22 C55.46 59.48, 54.13 60.65, 52.73 61.7 C51.33 62.74, 49.83 63.68, 48.28 64.49 C46.74 65.3, 45.12 65.99, 43.47 66.54 C41.82 67.09, 40.11 67.51, 38.4 67.79 C36.69 68.07, 34.94 68.21, 33.21 68.21 C31.48 68.21, 29.72 68.07, 28.01 67.79 C26.3 67.51, 24.59 67.09, 22.95 66.54 C21.3 65.99, 19.67 65.3, 18.13 64.49 C16.59 63.68, 15.09 62.74, 13.69 61.7 C12.29 60.65, 10.95 59.48, 9.73 58.22 C8.5 56.96, 7.36 55.59, 6.34 54.15 C5.32 52.71, 4.41 51.17, 3.62 49.59 C2.83 48, 2.16 46.34, 1.63 44.64 C1.09 42.95, 0.68 41.2, 0.41 39.44 C0.14 37.68, 0 35.88, 0 34.1 C0 32.33, 0.14 30.53, 0.41 28.77 C0.68 27.01, 1.09 25.26, 1.63 23.57 C2.16 21.87, 2.83 20.21, 3.62 18.62 C4.41 17.04, 5.32 15.5, 6.34 14.06 C7.36 12.62, 8.5 11.25, 9.73 9.99 C10.95 8.73, 12.29 7.56, 13.69 6.51 C15.09 5.47, 16.59 4.52, 18.13 3.72 C19.67 2.91, 21.3 2.22, 22.95 1.67 C24.59 1.12, 26.3 0.7, 28.01 0.42 C29.72 0.14, 31.48 0, 33.21 0 C34.94 0, 36.69 0.14, 38.4 0.42 C40.11 0.7, 41.82 1.12, 43.47 1.67 C45.12 2.22, 46.74 2.91, 48.28 3.72 C49.83 4.52, 51.33 5.47, 52.73 6.51 C54.13 7.56, 55.46 8.73, 56.69 9.99 C57.91 11.25, 59.05 12.62, 60.07 14.06 C61.09 15.5, 62.01 17.04, 62.8 18.62 C63.58 20.21, 64.25 21.87, 64.79 23.57 C65.32 25.26, 65.73 27.01, 66.01 28.77 C66.28 30.53, 66.35 33.22, 66.41 34.1 C66.48 34.99, 66.48 33.22, 66.41 34.1" stroke="#000000" stroke-width="4" fill="none"></path></g><g stroke-linecap="round" transform="translate(345.7585943263739 240.56936687504935) rotate(0 24.23232375764144 23.33483028513615)"><path d="M48.46 23.33 C48.46 24.69, 48.34 26.06, 48.1 27.39 C47.85 28.72, 47.48 30.05, 47 31.32 C46.52 32.59, 45.92 33.83, 45.22 35 C44.52 36.17, 43.7 37.3, 42.8 38.33 C41.89 39.37, 40.88 40.34, 39.81 41.21 C38.73 42.08, 37.56 42.87, 36.35 43.54 C35.13 44.22, 33.84 44.8, 32.52 45.26 C31.2 45.72, 29.82 46.08, 28.44 46.32 C27.06 46.55, 25.63 46.67, 24.23 46.67 C22.83 46.67, 21.41 46.55, 20.02 46.32 C18.64 46.08, 17.26 45.72, 15.94 45.26 C14.63 44.8, 13.33 44.22, 12.12 43.54 C10.9 42.87, 9.73 42.08, 8.66 41.21 C7.58 40.34, 6.57 39.37, 5.67 38.33 C4.77 37.3, 3.95 36.17, 3.25 35 C2.55 33.83, 1.94 32.59, 1.46 31.32 C0.98 30.05, 0.61 28.72, 0.37 27.39 C0.12 26.06, 0 24.69, 0 23.33 C0 21.98, 0.12 20.61, 0.37 19.28 C0.61 17.95, 0.98 16.62, 1.46 15.35 C1.94 14.08, 2.55 12.84, 3.25 11.67 C3.95 10.5, 4.77 9.37, 5.67 8.34 C6.57 7.3, 7.58 6.33, 8.66 5.46 C9.73 4.59, 10.9 3.8, 12.12 3.13 C13.33 2.45, 14.63 1.87, 15.94 1.41 C17.26 0.95, 18.64 0.59, 20.02 0.35 C21.41 0.12, 22.83 0, 24.23 0 C25.63 0, 27.06 0.12, 28.44 0.35 C29.82 0.59, 31.2 0.95, 32.52 1.41 C33.84 1.87, 35.13 2.45, 36.35 3.13 C37.56 3.8, 38.73 4.59, 39.81 5.46 C40.88 6.33, 41.89 7.3, 42.8 8.34 C43.7 9.37, 44.52 10.5, 45.22 11.67 C45.92 12.84, 46.52 14.08, 47 15.35 C47.48 16.62, 47.85 17.95, 48.1 19.28 C48.34 20.61, 48.4 22.66, 48.46 23.33 C48.53 24.01, 48.53 22.66, 48.46 23.33" stroke="none" stroke-width="0" fill="#ced4da"></path><path d="M48.46 23.33 C48.46 24.69, 48.34 26.06, 48.1 27.39 C47.85 28.72, 47.48 30.05, 47 31.32 C46.52 32.59, 45.92 33.83, 45.22 35 C44.52 36.17, 43.7 37.3, 42.8 38.33 C41.89 39.37, 40.88 40.34, 39.81 41.21 C38.73 42.08, 37.56 42.87, 36.35 43.54 C35.13 44.22, 33.84 44.8, 32.52 45.26 C31.2 45.72, 29.82 46.08, 28.44 46.32 C27.06 46.55, 25.63 46.67, 24.23 46.67 C22.83 46.67, 21.41 46.55, 20.02 46.32 C18.64 46.08, 17.26 45.72, 15.94 45.26 C14.63 44.8, 13.33 44.22, 12.12 43.54 C10.9 42.87, 9.73 42.08, 8.66 41.21 C7.58 40.34, 6.57 39.37, 5.67 38.33 C4.77 37.3, 3.95 36.17, 3.25 35 C2.55 33.83, 1.94 32.59, 1.46 31.32 C0.98 30.05, 0.61 28.72, 0.37 27.39 C0.12 26.06, 0 24.69, 0 23.33 C0 21.98, 0.12 20.61, 0.37 19.28 C0.61 17.95, 0.98 16.62, 1.46 15.35 C1.94 14.08, 2.55 12.84, 3.25 11.67 C3.95 10.5, 4.77 9.37, 5.67 8.34 C6.57 7.3, 7.58 6.33, 8.66 5.46 C9.73 4.59, 10.9 3.8, 12.12 3.13 C13.33 2.45, 14.63 1.87, 15.94 1.41 C17.26 0.95, 18.64 0.59, 20.02 0.35 C21.41 0.12, 22.83 0, 24.23 0 C25.63 0, 27.06 0.12, 28.44 0.35 C29.82 0.59, 31.2 0.95, 32.52 1.41 C33.84 1.87, 35.13 2.45, 36.35 3.13 C37.56 3.8, 38.73 4.59, 39.81 5.46 C40.88 6.33, 41.89 7.3, 42.8 8.34 C43.7 9.37, 44.52 10.5, 45.22 11.67 C45.92 12.84, 46.52 14.08, 47 15.35 C47.48 16.62, 47.85 17.95, 48.1 19.28 C48.34 20.61, 48.4 22.66, 48.46 23.33 C48.53 24.01, 48.53 22.66, 48.46 23.33" stroke="#000000" stroke-width="4" fill="none"></path></g><g stroke-linecap="round" transform="translate(461.22773269706545 240.56936687504935) rotate(0 24.23232375764144 23.33483028513615)"><path d="M48.46 23.33 C48.46 24.69, 48.34 26.06, 48.1 27.39 C47.85 28.72, 47.48 30.05, 47 31.32 C46.52 32.59, 45.92 33.83, 45.22 35 C44.52 36.17, 43.7 37.3, 42.8 38.33 C41.89 39.37, 40.88 40.34, 39.81 41.21 C38.73 42.08, 37.56 42.87, 36.35 43.54 C35.13 44.22, 33.84 44.8, 32.52 45.26 C31.2 45.72, 29.82 46.08, 28.44 46.32 C27.06 46.55, 25.63 46.67, 24.23 46.67 C22.83 46.67, 21.41 46.55, 20.02 46.32 C18.64 46.08, 17.26 45.72, 15.94 45.26 C14.63 44.8, 13.33 44.22, 12.12 43.54 C10.9 42.87, 9.73 42.08, 8.66 41.21 C7.58 40.34, 6.57 39.37, 5.67 38.33 C4.77 37.3, 3.95 36.17, 3.25 35 C2.55 33.83, 1.94 32.59, 1.46 31.32 C0.98 30.05, 0.61 28.72, 0.37 27.39 C0.12 26.06, 0 24.69, 0 23.33 C0 21.98, 0.12 20.61, 0.37 19.28 C0.61 17.95, 0.98 16.62, 1.46 15.35 C1.94 14.08, 2.55 12.84, 3.25 11.67 C3.95 10.5, 4.77 9.37, 5.67 8.34 C6.57 7.3, 7.58 6.33, 8.66 5.46 C9.73 4.59, 10.9 3.8, 12.12 3.13 C13.33 2.45, 14.63 1.87, 15.94 1.41 C17.26 0.95, 18.64 0.59, 20.02 0.35 C21.41 0.12, 22.83 0, 24.23 0 C25.63 0, 27.06 0.12, 28.44 0.35 C29.82 0.59, 31.2 0.95, 32.52 1.41 C33.84 1.87, 35.13 2.45, 36.35 3.13 C37.56 3.8, 38.73 4.59, 39.81 5.46 C40.88 6.33, 41.89 7.3, 42.8 8.34 C43.7 9.37, 44.52 10.5, 45.22 11.67 C45.92 12.84, 46.52 14.08, 47 15.35 C47.48 16.62, 47.85 17.95, 48.1 19.28 C48.34 20.61, 48.4 22.66, 48.46 23.33 C48.53 24.01, 48.53 22.66, 48.46 23.33" stroke="none" stroke-width="0" fill="#ced4da"></path><path d="M48.46 23.33 C48.46 24.69, 48.34 26.06, 48.1 27.39 C47.85 28.72, 47.48 30.05, 47 31.32 C46.52 32.59, 45.92 33.83, 45.22 35 C44.52 36.17, 43.7 37.3, 42.8 38.33 C41.89 39.37, 40.88 40.34, 39.81 41.21 C38.73 42.08, 37.56 42.87, 36.35 43.54 C35.13 44.22, 33.84 44.8, 32.52 45.26 C31.2 45.72, 29.82 46.08, 28.44 46.32 C27.06 46.55, 25.63 46.67, 24.23 46.67 C22.83 46.67, 21.41 46.55, 20.02 46.32 C18.64 46.08, 17.26 45.72, 15.94 45.26 C14.63 44.8, 13.33 44.22, 12.12 43.54 C10.9 42.87, 9.73 42.08, 8.66 41.21 C7.58 40.34, 6.57 39.37, 5.67 38.33 C4.77 37.3, 3.95 36.17, 3.25 35 C2.55 33.83, 1.94 32.59, 1.46 31.32 C0.98 30.05, 0.61 28.72, 0.37 27.39 C0.12 26.06, 0 24.69, 0 23.33 C0 21.98, 0.12 20.61, 0.37 19.28 C0.61 17.95, 0.98 16.62, 1.46 15.35 C1.94 14.08, 2.55 12.84, 3.25 11.67 C3.95 10.5, 4.77 9.37, 5.67 8.34 C6.57 7.3, 7.58 6.33, 8.66 5.46 C9.73 4.59, 10.9 3.8, 12.12 3.13 C13.33 2.45, 14.63 1.87, 15.94 1.41 C17.26 0.95, 18.64 0.59, 20.02 0.35 C21.41 0.12, 22.83 0, 24.23 0 C25.63 0, 27.06 0.12, 28.44 0.35 C29.82 0.59, 31.2 0.95, 32.52 1.41 C33.84 1.87, 35.13 2.45, 36.35 3.13 C37.56 3.8, 38.73 4.59, 39.81 5.46 C40.88 6.33, 41.89 7.3, 42.8 8.34 C43.7 9.37, 44.52 10.5, 45.22 11.67 C45.92 12.84, 46.52 14.08, 47 15.35 C47.48 16.62, 47.85 17.95, 48.1 19.28 C48.34 20.61, 48.4 22.66, 48.46 23.33 C48.53 24.01, 48.53 22.66, 48.46 23.33" stroke="#000000" stroke-width="4" fill="none"></path></g><g stroke-linecap="round" transform="translate(582.7606569689788 228.004458259976) rotate(0 33.207258482693874 34.10475195519916)"><path d="M66.41 34.1 C66.41 35.88, 66.28 37.68, 66.01 39.44 C65.73 41.2, 65.32 42.95, 64.79 44.64 C64.25 46.34, 63.58 48, 62.8 49.59 C62.01 51.17, 61.09 52.71, 60.07 54.15 C59.05 55.59, 57.91 56.96, 56.69 58.22 C55.46 59.48, 54.13 60.65, 52.73 61.7 C51.33 62.74, 49.83 63.68, 48.28 64.49 C46.74 65.3, 45.12 65.99, 43.47 66.54 C41.82 67.09, 40.11 67.51, 38.4 67.79 C36.69 68.07, 34.94 68.21, 33.21 68.21 C31.48 68.21, 29.72 68.07, 28.01 67.79 C26.3 67.51, 24.59 67.09, 22.95 66.54 C21.3 65.99, 19.67 65.3, 18.13 64.49 C16.59 63.68, 15.09 62.74, 13.69 61.7 C12.29 60.65, 10.95 59.48, 9.73 58.22 C8.5 56.96, 7.36 55.59, 6.34 54.15 C5.32 52.71, 4.41 51.17, 3.62 49.59 C2.83 48, 2.16 46.34, 1.63 44.64 C1.09 42.95, 0.68 41.2, 0.41 39.44 C0.14 37.68, 0 35.88, 0 34.1 C0 32.33, 0.14 30.53, 0.41 28.77 C0.68 27.01, 1.09 25.26, 1.63 23.57 C2.16 21.87, 2.83 20.21, 3.62 18.62 C4.41 17.04, 5.32 15.5, 6.34 14.06 C7.36 12.62, 8.5 11.25, 9.73 9.99 C10.95 8.73, 12.29 7.56, 13.69 6.51 C15.09 5.47, 16.59 4.52, 18.13 3.72 C19.67 2.91, 21.3 2.22, 22.95 1.67 C24.59 1.12, 26.3 0.7, 28.01 0.42 C29.72 0.14, 31.48 0, 33.21 0 C34.94 0, 36.69 0.14, 38.4 0.42 C40.11 0.7, 41.82 1.12, 43.47 1.67 C45.12 2.22, 46.74 2.91, 48.28 3.72 C49.83 4.52, 51.33 5.47, 52.73 6.51 C54.13 7.56, 55.46 8.73, 56.69 9.99 C57.91 11.25, 59.05 12.62, 60.07 14.06 C61.09 15.5, 62.01 17.04, 62.8 18.62 C63.58 20.21, 64.25 21.87, 64.79 23.57 C65.32 25.26, 65.73 27.01, 66.01 28.77 C66.28 30.53, 66.35 33.22, 66.41 34.1 C66.48 34.99, 66.48 33.22, 66.41 34.1" stroke="none" stroke-width="0" fill="#ffffff"></path><path d="M66.41 34.1 C66.41 35.88, 66.28 37.68, 66.01 39.44 C65.73 41.2, 65.32 42.95, 64.79 44.64 C64.25 46.34, 63.58 48, 62.8 49.59 C62.01 51.17, 61.09 52.71, 60.07 54.15 C59.05 55.59, 57.91 56.96, 56.69 58.22 C55.46 59.48, 54.13 60.65, 52.73 61.7 C51.33 62.74, 49.83 63.68, 48.28 64.49 C46.74 65.3, 45.12 65.99, 43.47 66.54 C41.82 67.09, 40.11 67.51, 38.4 67.79 C36.69 68.07, 34.94 68.21, 33.21 68.21 C31.48 68.21, 29.72 68.07, 28.01 67.79 C26.3 67.51, 24.59 67.09, 22.95 66.54 C21.3 65.99, 19.67 65.3, 18.13 64.49 C16.59 63.68, 15.09 62.74, 13.69 61.7 C12.29 60.65, 10.95 59.48, 9.73 58.22 C8.5 56.96, 7.36 55.59, 6.34 54.15 C5.32 52.71, 4.41 51.17, 3.62 49.59 C2.83 48, 2.16 46.34, 1.63 44.64 C1.09 42.95, 0.68 41.2, 0.41 39.44 C0.14 37.68, 0 35.88, 0 34.1 C0 32.33, 0.14 30.53, 0.41 28.77 C0.68 27.01, 1.09 25.26, 1.63 23.57 C2.16 21.87, 2.83 20.21, 3.62 18.62 C4.41 17.04, 5.32 15.5, 6.34 14.06 C7.36 12.62, 8.5 11.25, 9.73 9.99 C10.95 8.73, 12.29 7.56, 13.69 6.51 C15.09 5.47, 16.59 4.52, 18.13 3.72 C19.67 2.91, 21.3 2.22, 22.95 1.67 C24.59 1.12, 26.3 0.7, 28.01 0.42 C29.72 0.14, 31.48 0, 33.21 0 C34.94 0, 36.69 0.14, 38.4 0.42 C40.11 0.7, 41.82 1.12, 43.47 1.67 C45.12 2.22, 46.74 2.91, 48.28 3.72 C49.83 4.52, 51.33 5.47, 52.73 6.51 C54.13 7.56, 55.46 8.73, 56.69 9.99 C57.91 11.25, 59.05 12.62, 60.07 14.06 C61.09 15.5, 62.01 17.04, 62.8 18.62 C63.58 20.21, 64.25 21.87, 64.79 23.57 C65.32 25.26, 65.73 27.01, 66.01 28.77 C66.28 30.53, 66.35 33.22, 66.41 34.1 C66.48 34.99, 66.48 33.22, 66.41 34.1" stroke="#000000" stroke-width="4" fill="none"></path></g><g stroke-linecap="round" transform="translate(718.2821713172698 242.3643538200597) rotate(0 24.23232375764144 23.33483028513615)"><path d="M48.46 23.33 C48.46 24.69, 48.34 26.06, 48.1 27.39 C47.85 28.72, 47.48 30.05, 47 31.32 C46.52 32.59, 45.92 33.83, 45.22 35 C44.52 36.17, 43.7 37.3, 42.8 38.33 C41.89 39.37, 40.88 40.34, 39.81 41.21 C38.73 42.08, 37.56 42.87, 36.35 43.54 C35.13 44.22, 33.84 44.8, 32.52 45.26 C31.2 45.72, 29.82 46.08, 28.44 46.32 C27.06 46.55, 25.63 46.67, 24.23 46.67 C22.83 46.67, 21.41 46.55, 20.02 46.32 C18.64 46.08, 17.26 45.72, 15.94 45.26 C14.63 44.8, 13.33 44.22, 12.12 43.54 C10.9 42.87, 9.73 42.08, 8.66 41.21 C7.58 40.34, 6.57 39.37, 5.67 38.33 C4.77 37.3, 3.95 36.17, 3.25 35 C2.55 33.83, 1.94 32.59, 1.46 31.32 C0.98 30.05, 0.61 28.72, 0.37 27.39 C0.12 26.06, 0 24.69, 0 23.33 C0 21.98, 0.12 20.61, 0.37 19.28 C0.61 17.95, 0.98 16.62, 1.46 15.35 C1.94 14.08, 2.55 12.84, 3.25 11.67 C3.95 10.5, 4.77 9.37, 5.67 8.34 C6.57 7.3, 7.58 6.33, 8.66 5.46 C9.73 4.59, 10.9 3.8, 12.12 3.13 C13.33 2.45, 14.63 1.87, 15.94 1.41 C17.26 0.95, 18.64 0.59, 20.02 0.35 C21.41 0.12, 22.83 0, 24.23 0 C25.63 0, 27.06 0.12, 28.44 0.35 C29.82 0.59, 31.2 0.95, 32.52 1.41 C33.84 1.87, 35.13 2.45, 36.35 3.13 C37.56 3.8, 38.73 4.59, 39.81 5.46 C40.88 6.33, 41.89 7.3, 42.8 8.34 C43.7 9.37, 44.52 10.5, 45.22 11.67 C45.92 12.84, 46.52 14.08, 47 15.35 C47.48 16.62, 47.85 17.95, 48.1 19.28 C48.34 20.61, 48.4 22.66, 48.46 23.33 C48.53 24.01, 48.53 22.66, 48.46 23.33" stroke="none" stroke-width="0" fill="#ced4da"></path><path d="M48.46 23.33 C48.46 24.69, 48.34 26.06, 48.1 27.39 C47.85 28.72, 47.48 30.05, 47 31.32 C46.52 32.59, 45.92 33.83, 45.22 35 C44.52 36.17, 43.7 37.3, 42.8 38.33 C41.89 39.37, 40.88 40.34, 39.81 41.21 C38.73 42.08, 37.56 42.87, 36.35 43.54 C35.13 44.22, 33.84 44.8, 32.52 45.26 C31.2 45.72, 29.82 46.08, 28.44 46.32 C27.06 46.55, 25.63 46.67, 24.23 46.67 C22.83 46.67, 21.41 46.55, 20.02 46.32 C18.64 46.08, 17.26 45.72, 15.94 45.26 C14.63 44.8, 13.33 44.22, 12.12 43.54 C10.9 42.87, 9.73 42.08, 8.66 41.21 C7.58 40.34, 6.57 39.37, 5.67 38.33 C4.77 37.3, 3.95 36.17, 3.25 35 C2.55 33.83, 1.94 32.59, 1.46 31.32 C0.98 30.05, 0.61 28.72, 0.37 27.39 C0.12 26.06, 0 24.69, 0 23.33 C0 21.98, 0.12 20.61, 0.37 19.28 C0.61 17.95, 0.98 16.62, 1.46 15.35 C1.94 14.08, 2.55 12.84, 3.25 11.67 C3.95 10.5, 4.77 9.37, 5.67 8.34 C6.57 7.3, 7.58 6.33, 8.66 5.46 C9.73 4.59, 10.9 3.8, 12.12 3.13 C13.33 2.45, 14.63 1.87, 15.94 1.41 C17.26 0.95, 18.64 0.59, 20.02 0.35 C21.41 0.12, 22.83 0, 24.23 0 C25.63 0, 27.06 0.12, 28.44 0.35 C29.82 0.59, 31.2 0.95, 32.52 1.41 C33.84 1.87, 35.13 2.45, 36.35 3.13 C37.56 3.8, 38.73 4.59, 39.81 5.46 C40.88 6.33, 41.89 7.3, 42.8 8.34 C43.7 9.37, 44.52 10.5, 45.22 11.67 C45.92 12.84, 46.52 14.08, 47 15.35 C47.48 16.62, 47.85 17.95, 48.1 19.28 C48.34 20.61, 48.4 22.66, 48.46 23.33 C48.53 24.01, 48.53 22.66, 48.46 23.33" stroke="#000000" stroke-width="4" fill="none"></path></g><g stroke-linecap="round" transform="translate(836.7513096879616 242.3643538200597) rotate(0 24.23232375764144 23.33483028513615)"><path d="M48.46 23.33 C48.46 24.69, 48.34 26.06, 48.1 27.39 C47.85 28.72, 47.48 30.05, 47 31.32 C46.52 32.59, 45.92 33.83, 45.22 35 C44.52 36.17, 43.7 37.3, 42.8 38.33 C41.89 39.37, 40.88 40.34, 39.81 41.21 C38.73 42.08, 37.56 42.87, 36.35 43.54 C35.13 44.22, 33.84 44.8, 32.52 45.26 C31.2 45.72, 29.82 46.08, 28.44 46.32 C27.06 46.55, 25.63 46.67, 24.23 46.67 C22.83 46.67, 21.41 46.55, 20.02 46.32 C18.64 46.08, 17.26 45.72, 15.94 45.26 C14.63 44.8, 13.33 44.22, 12.12 43.54 C10.9 42.87, 9.73 42.08, 8.66 41.21 C7.58 40.34, 6.57 39.37, 5.67 38.33 C4.77 37.3, 3.95 36.17, 3.25 35 C2.55 33.83, 1.94 32.59, 1.46 31.32 C0.98 30.05, 0.61 28.72, 0.37 27.39 C0.12 26.06, 0 24.69, 0 23.33 C0 21.98, 0.12 20.61, 0.37 19.28 C0.61 17.95, 0.98 16.62, 1.46 15.35 C1.94 14.08, 2.55 12.84, 3.25 11.67 C3.95 10.5, 4.77 9.37, 5.67 8.34 C6.57 7.3, 7.58 6.33, 8.66 5.46 C9.73 4.59, 10.9 3.8, 12.12 3.13 C13.33 2.45, 14.63 1.87, 15.94 1.41 C17.26 0.95, 18.64 0.59, 20.02 0.35 C21.41 0.12, 22.83 0, 24.23 0 C25.63 0, 27.06 0.12, 28.44 0.35 C29.82 0.59, 31.2 0.95, 32.52 1.41 C33.84 1.87, 35.13 2.45, 36.35 3.13 C37.56 3.8, 38.73 4.59, 39.81 5.46 C40.88 6.33, 41.89 7.3, 42.8 8.34 C43.7 9.37, 44.52 10.5, 45.22 11.67 C45.92 12.84, 46.52 14.08, 47 15.35 C47.48 16.62, 47.85 17.95, 48.1 19.28 C48.34 20.61, 48.4 22.66, 48.46 23.33 C48.53 24.01, 48.53 22.66, 48.46 23.33" stroke="none" stroke-width="0" fill="#ced4da"></path><path d="M48.46 23.33 C48.46 24.69, 48.34 26.06, 48.1 27.39 C47.85 28.72, 47.48 30.05, 47 31.32 C46.52 32.59, 45.92 33.83, 45.22 35 C44.52 36.17, 43.7 37.3, 42.8 38.33 C41.89 39.37, 40.88 40.34, 39.81 41.21 C38.73 42.08, 37.56 42.87, 36.35 43.54 C35.13 44.22, 33.84 44.8, 32.52 45.26 C31.2 45.72, 29.82 46.08, 28.44 46.32 C27.06 46.55, 25.63 46.67, 24.23 46.67 C22.83 46.67, 21.41 46.55, 20.02 46.32 C18.64 46.08, 17.26 45.72, 15.94 45.26 C14.63 44.8, 13.33 44.22, 12.12 43.54 C10.9 42.87, 9.73 42.08, 8.66 41.21 C7.58 40.34, 6.57 39.37, 5.67 38.33 C4.77 37.3, 3.95 36.17, 3.25 35 C2.55 33.83, 1.94 32.59, 1.46 31.32 C0.98 30.05, 0.61 28.72, 0.37 27.39 C0.12 26.06, 0 24.69, 0 23.33 C0 21.98, 0.12 20.61, 0.37 19.28 C0.61 17.95, 0.98 16.62, 1.46 15.35 C1.94 14.08, 2.55 12.84, 3.25 11.67 C3.95 10.5, 4.77 9.37, 5.67 8.34 C6.57 7.3, 7.58 6.33, 8.66 5.46 C9.73 4.59, 10.9 3.8, 12.12 3.13 C13.33 2.45, 14.63 1.87, 15.94 1.41 C17.26 0.95, 18.64 0.59, 20.02 0.35 C21.41 0.12, 22.83 0, 24.23 0 C25.63 0, 27.06 0.12, 28.44 0.35 C29.82 0.59, 31.2 0.95, 32.52 1.41 C33.84 1.87, 35.13 2.45, 36.35 3.13 C37.56 3.8, 38.73 4.59, 39.81 5.46 C40.88 6.33, 41.89 7.3, 42.8 8.34 C43.7 9.37, 44.52 10.5, 45.22 11.67 C45.92 12.84, 46.52 14.08, 47 15.35 C47.48 16.62, 47.85 17.95, 48.1 19.28 C48.34 20.61, 48.4 22.66, 48.46 23.33 C48.53 24.01, 48.53 22.66, 48.46 23.33" stroke="#000000" stroke-width="4" fill="none"></path></g><g transform="translate(211.57044635421244 168.94464368559147) rotate(0 39.5 17)"><text x="39.5" y="26" font-family="Helvetica, Segoe UI Emoji" font-size="28px" fill="#000000" text-anchor="middle" style="white-space: pre;" direction="ltr">v22.0</text></g><g transform="translate(330.5414294315776 168.33734471004732) rotate(0 39.5 17)"><text x="39.5" y="26" font-family="Helvetica, Segoe UI Emoji" font-size="28px" fill="#000000" text-anchor="middle" style="white-space: pre;" direction="ltr">v22.1</text></g><g transform="translate(446.7188036559203 169.20341674261704) rotate(0 39.5 17)"><text x="39.5" y="26" font-family="Helvetica, Segoe UI Emoji" font-size="28px" fill="#000000" text-anchor="middle" style="white-space: pre;" direction="ltr">v22.2</text></g><g transform="translate(572.9285972308144 169.18985123754214) rotate(0 39.5 17)"><text x="39.5" y="26" font-family="Helvetica, Segoe UI Emoji" font-size="28px" fill="#000000" text-anchor="middle" style="white-space: pre;" direction="ltr">v23.0</text></g><g transform="translate(702.4166319777341 167.4783449426145) rotate(0 39.5 17)"><text x="39.5" y="26" font-family="Helvetica, Segoe UI Emoji" font-size="28px" fill="#000000" text-anchor="middle" style="white-space: pre;" direction="ltr">v23.1</text></g><g transform="translate(819.6525124971777 168.83291823925038) rotate(0 39.5 17)"><text x="39.5" y="26" font-family="Helvetica, Segoe UI Emoji" font-size="28px" fill="#000000" text-anchor="middle" style="white-space: pre;" direction="ltr">v23.2</text></g><g transform="translate(249.32192785469374 345.7561948938287) rotate(0 116 20.5)"><text x="116" y="33" font-family="Helvetica, Segoe UI Emoji" font-size="28px" fill="#495057" text-anchor="middle" style="white-space: pre;" direction="ltr">2022年（v22.x）</text></g><g transform="translate(625.361140798783 346.0838399890929) rotate(0 116 20.5)"><text x="116" y="33" font-family="Helvetica, Segoe UI Emoji" font-size="28px" fill="#495057" text-anchor="middle" style="white-space: pre;" direction="ltr">2023年（v23.x）</text></g><g stroke-linecap="round" transform="translate(10 81.87704207192314) rotate(0 552.8093030203299 228.80663558803008)"><path d="M0.11 0.43 C327.81 -3.56, 654.6 -3.07, 1106.22 0.75 M0.04 0.38 C272.58 -4.15, 544.48 -4.27, 1105.44 -0.05 M1105.55 0.39 C1106.19 105.41, 1105.62 209.34, 1105.39 457.1 M1105.3 -0.34 C1106.62 106.43, 1106.86 212.69, 1105.87 457.92 M1105.64 457.36 C823.72 459.04, 541.28 459.56, 0.24 458.25 M1105.7 457.75 C880.28 454.24, 654.15 454.2, 0.3 457.23 M0.75 457.83 C-1.79 302.03, -2.85 145.86, -0.71 -0.27 M0.03 458.06 C1.46 290.27, 1.36 123.54, 0.3 0.07" stroke="#9999" stroke-width="2" fill="none"></path></g><g transform="translate(237.51349487118364 10) rotate(0 341 20.5)"><text x="341" y="33" font-family="Helvetica, Segoe UI Emoji" font-size="28px" fill="#000000" text-anchor="middle" style="white-space: pre;" direction="ltr">FlexConfirmMailのリリースサイクル（イメージ図）</text></g><g stroke-linecap="round" transform="translate(333.702119347505 465.89526310921724) rotate(0 14.324346853047018 13.603305043011176)"><path d="M28.65 13.6 C28.65 14.39, 28.58 15.19, 28.43 15.97 C28.29 16.74, 28.07 17.52, 27.78 18.26 C27.5 19, 27.14 19.72, 26.73 20.4 C26.32 21.09, 25.83 21.74, 25.3 22.35 C24.76 22.95, 24.17 23.52, 23.53 24.02 C22.9 24.53, 22.2 24.99, 21.49 25.38 C20.77 25.78, 20 26.12, 19.22 26.39 C18.44 26.66, 17.63 26.86, 16.81 27 C16 27.14, 15.15 27.21, 14.32 27.21 C13.5 27.21, 12.65 27.14, 11.84 27 C11.02 26.86, 10.2 26.66, 9.43 26.39 C8.65 26.12, 7.88 25.78, 7.16 25.38 C6.44 24.99, 5.75 24.53, 5.12 24.02 C4.48 23.52, 3.88 22.95, 3.35 22.35 C2.82 21.74, 2.33 21.09, 1.92 20.4 C1.5 19.72, 1.15 19, 0.86 18.26 C0.58 17.52, 0.36 16.74, 0.22 15.97 C0.07 15.19, 0 14.39, 0 13.6 C0 12.82, 0.07 12.02, 0.22 11.24 C0.36 10.47, 0.58 9.69, 0.86 8.95 C1.15 8.21, 1.5 7.48, 1.92 6.8 C2.33 6.12, 2.82 5.46, 3.35 4.86 C3.88 4.26, 4.48 3.69, 5.12 3.18 C5.75 2.68, 6.44 2.22, 7.16 1.82 C7.88 1.43, 8.65 1.09, 9.43 0.82 C10.2 0.55, 11.02 0.34, 11.84 0.21 C12.65 0.07, 13.5 0, 14.32 0 C15.15 0, 16 0.07, 16.81 0.21 C17.63 0.34, 18.44 0.55, 19.22 0.82 C20 1.09, 20.77 1.43, 21.49 1.82 C22.2 2.22, 22.9 2.68, 23.53 3.18 C24.17 3.69, 24.76 4.26, 25.3 4.86 C25.83 5.46, 26.32 6.12, 26.73 6.8 C27.14 7.48, 27.5 8.21, 27.78 8.95 C28.07 9.69, 28.29 10.47, 28.43 11.24 C28.58 12.02, 28.61 13.21, 28.65 13.6 C28.68 14, 28.68 13.21, 28.65 13.6" stroke="none" stroke-width="0" fill="#ffffff"></path><path d="M28.65 13.6 C28.65 14.39, 28.58 15.19, 28.43 15.97 C28.29 16.74, 28.07 17.52, 27.78 18.26 C27.5 19, 27.14 19.72, 26.73 20.4 C26.32 21.09, 25.83 21.74, 25.3 22.35 C24.76 22.95, 24.17 23.52, 23.53 24.02 C22.9 24.53, 22.2 24.99, 21.49 25.38 C20.77 25.78, 20 26.12, 19.22 26.39 C18.44 26.66, 17.63 26.86, 16.81 27 C16 27.14, 15.15 27.21, 14.32 27.21 C13.5 27.21, 12.65 27.14, 11.84 27 C11.02 26.86, 10.2 26.66, 9.43 26.39 C8.65 26.12, 7.88 25.78, 7.16 25.38 C6.44 24.99, 5.75 24.53, 5.12 24.02 C4.48 23.52, 3.88 22.95, 3.35 22.35 C2.82 21.74, 2.33 21.09, 1.92 20.4 C1.5 19.72, 1.15 19, 0.86 18.26 C0.58 17.52, 0.36 16.74, 0.22 15.97 C0.07 15.19, 0 14.39, 0 13.6 C0 12.82, 0.07 12.02, 0.22 11.24 C0.36 10.47, 0.58 9.69, 0.86 8.95 C1.15 8.21, 1.5 7.48, 1.92 6.8 C2.33 6.12, 2.82 5.46, 3.35 4.86 C3.88 4.26, 4.48 3.69, 5.12 3.18 C5.75 2.68, 6.44 2.22, 7.16 1.82 C7.88 1.43, 8.65 1.09, 9.43 0.82 C10.2 0.55, 11.02 0.34, 11.84 0.21 C12.65 0.07, 13.5 0, 14.32 0 C15.15 0, 16 0.07, 16.81 0.21 C17.63 0.34, 18.44 0.55, 19.22 0.82 C20 1.09, 20.77 1.43, 21.49 1.82 C22.2 2.22, 22.9 2.68, 23.53 3.18 C24.17 3.69, 24.76 4.26, 25.3 4.86 C25.83 5.46, 26.32 6.12, 26.73 6.8 C27.14 7.48, 27.5 8.21, 27.78 8.95 C28.07 9.69, 28.29 10.47, 28.43 11.24 C28.58 12.02, 28.61 13.21, 28.65 13.6 C28.68 14, 28.68 13.21, 28.65 13.6" stroke="#000000" stroke-width="4" fill="none"></path></g><g transform="translate(373.91062088199214 463.5490810403769) rotate(0 89.5 15)"><text x="89.5" y="24" font-family="Helvetica, Segoe UI Emoji" font-size="20px" fill="#000000" text-anchor="middle" style="white-space: pre;" direction="ltr">メジャーバージョン</text></g><g stroke-linecap="round" transform="translate(588.2599112727073 466.6201929136412) rotate(0 14.324346853047018 13.603305043011176)"><path d="M28.65 13.6 C28.65 14.39, 28.58 15.19, 28.43 15.97 C28.29 16.74, 28.07 17.52, 27.78 18.26 C27.5 19, 27.14 19.72, 26.73 20.4 C26.32 21.09, 25.83 21.74, 25.3 22.35 C24.76 22.95, 24.17 23.52, 23.53 24.02 C22.9 24.53, 22.2 24.99, 21.49 25.38 C20.77 25.78, 20 26.12, 19.22 26.39 C18.44 26.66, 17.63 26.86, 16.81 27 C16 27.14, 15.15 27.21, 14.32 27.21 C13.5 27.21, 12.65 27.14, 11.84 27 C11.02 26.86, 10.2 26.66, 9.43 26.39 C8.65 26.12, 7.88 25.78, 7.16 25.38 C6.44 24.99, 5.75 24.53, 5.12 24.02 C4.48 23.52, 3.88 22.95, 3.35 22.35 C2.82 21.74, 2.33 21.09, 1.92 20.4 C1.5 19.72, 1.15 19, 0.86 18.26 C0.58 17.52, 0.36 16.74, 0.22 15.97 C0.07 15.19, 0 14.39, 0 13.6 C0 12.82, 0.07 12.02, 0.22 11.24 C0.36 10.47, 0.58 9.69, 0.86 8.95 C1.15 8.21, 1.5 7.48, 1.92 6.8 C2.33 6.12, 2.82 5.46, 3.35 4.86 C3.88 4.26, 4.48 3.69, 5.12 3.18 C5.75 2.68, 6.44 2.22, 7.16 1.82 C7.88 1.43, 8.65 1.09, 9.43 0.82 C10.2 0.55, 11.02 0.34, 11.84 0.21 C12.65 0.07, 13.5 0, 14.32 0 C15.15 0, 16 0.07, 16.81 0.21 C17.63 0.34, 18.44 0.55, 19.22 0.82 C20 1.09, 20.77 1.43, 21.49 1.82 C22.2 2.22, 22.9 2.68, 23.53 3.18 C24.17 3.69, 24.76 4.26, 25.3 4.86 C25.83 5.46, 26.32 6.12, 26.73 6.8 C27.14 7.48, 27.5 8.21, 27.78 8.95 C28.07 9.69, 28.29 10.47, 28.43 11.24 C28.58 12.02, 28.61 13.21, 28.65 13.6 C28.68 14, 28.68 13.21, 28.65 13.6" stroke="none" stroke-width="0" fill="#ced4da"></path><path d="M28.65 13.6 C28.65 14.39, 28.58 15.19, 28.43 15.97 C28.29 16.74, 28.07 17.52, 27.78 18.26 C27.5 19, 27.14 19.72, 26.73 20.4 C26.32 21.09, 25.83 21.74, 25.3 22.35 C24.76 22.95, 24.17 23.52, 23.53 24.02 C22.9 24.53, 22.2 24.99, 21.49 25.38 C20.77 25.78, 20 26.12, 19.22 26.39 C18.44 26.66, 17.63 26.86, 16.81 27 C16 27.14, 15.15 27.21, 14.32 27.21 C13.5 27.21, 12.65 27.14, 11.84 27 C11.02 26.86, 10.2 26.66, 9.43 26.39 C8.65 26.12, 7.88 25.78, 7.16 25.38 C6.44 24.99, 5.75 24.53, 5.12 24.02 C4.48 23.52, 3.88 22.95, 3.35 22.35 C2.82 21.74, 2.33 21.09, 1.92 20.4 C1.5 19.72, 1.15 19, 0.86 18.26 C0.58 17.52, 0.36 16.74, 0.22 15.97 C0.07 15.19, 0 14.39, 0 13.6 C0 12.82, 0.07 12.02, 0.22 11.24 C0.36 10.47, 0.58 9.69, 0.86 8.95 C1.15 8.21, 1.5 7.48, 1.92 6.8 C2.33 6.12, 2.82 5.46, 3.35 4.86 C3.88 4.26, 4.48 3.69, 5.12 3.18 C5.75 2.68, 6.44 2.22, 7.16 1.82 C7.88 1.43, 8.65 1.09, 9.43 0.82 C10.2 0.55, 11.02 0.34, 11.84 0.21 C12.65 0.07, 13.5 0, 14.32 0 C15.15 0, 16 0.07, 16.81 0.21 C17.63 0.34, 18.44 0.55, 19.22 0.82 C20 1.09, 20.77 1.43, 21.49 1.82 C22.2 2.22, 22.9 2.68, 23.53 3.18 C24.17 3.69, 24.76 4.26, 25.3 4.86 C25.83 5.46, 26.32 6.12, 26.73 6.8 C27.14 7.48, 27.5 8.21, 27.78 8.95 C28.07 9.69, 28.29 10.47, 28.43 11.24 C28.58 12.02, 28.61 13.21, 28.65 13.6 C28.68 14, 28.68 13.21, 28.65 13.6" stroke="#000000" stroke-width="4" fill="none"></path></g><g transform="translate(631.2373337512586 465.17033330479364) rotate(0 89.5 15)"><text x="89.5" y="24" font-family="Helvetica, Segoe UI Emoji" font-size="20px" fill="#000000" text-anchor="middle" style="white-space: pre;" direction="ltr">マイナーバージョン</text></g></svg>