<svg version="1.1" xmlns="http://www.w3.org/2000/svg" viewBox="0 0 1356.9696703817617 615.1116463508935" width="2713.9393407635234" height="1230.223292701787">
  <!-- svg-source:excalidraw -->
  
  <defs>
    <style>
      @font-face {
        font-family: "Virgil";
        src: url("https://excalidraw.com/Virgil.woff2");
      }
      @font-face {
        font-family: "Cascadia";
        src: url("https://excalidraw.com/Cascadia.woff2");
      }
    </style>
  </defs>
  <rect x="0" y="0" width="1356.9696703817617" height="615.1116463508935" fill="#ffffff"></rect><g stroke-linecap="round" transform="translate(10 13.177158642771701) rotate(0 94.86072542750921 60.95775076745264)"><path d="M0 0 C0 0, 0 0, 0 0 M0 0 C0 0, 0 0, 0 0 M0.24 6.19 C1.19 5.79, 2.67 3.05, 5.55 -0.02 M0.13 6.01 C0.89 5.06, 2.13 3.87, 5.15 0.3 M1.67 11.69 C3.48 7.31, 5.62 2.52, 9.17 -0.04 M0.15 11.63 C3.81 8.41, 6.61 5.04, 10.23 0.58 M-0.46 18.77 C5.63 15.42, 6.93 11.04, 14.88 0.03 M0.34 19.1 C5.55 13.37, 11.22 5.57, 15.54 0.43 M1.76 23.17 C5.87 19.49, 10.87 15.17, 22.33 0.62 M0.83 24.98 C5.82 16.86, 11.19 10.42, 21.52 0.74 M-1.32 30.17 C9.01 21.12, 18.98 6.97, 27.9 1.89 M0.81 29.58 C8.01 22.7, 15.64 13.72, 25.37 -0.57 M-1.57 36.53 C11.62 24.88, 23.48 10.26, 30.62 -1.81 M0.22 37.59 C8.72 26.43, 19.05 15.22, 32.59 -0.5 M-0.74 41.72 C10.76 27.32, 24.9 16.34, 38.46 -0.81 M-0.65 43.2 C12.4 29.91, 22.67 15.55, 36.15 1.16 M-0.47 49.26 C10.27 37.97, 21.44 23.83, 43.5 0.85 M-0.66 48.35 C8.81 39.41, 18.41 28.51, 43.3 0.84 M0.22 54.47 C11.87 41.69, 23.39 24.82, 48.67 -1.43 M0.37 54.37 C10.98 42.1, 21.03 30.75, 46.83 1.1 M-0.36 61.61 C19.2 37.83, 40.46 13.69, 54.88 -1.82 M0.92 60.05 C17.85 41.41, 34.32 22.59, 53.86 -0.37 M-0.07 67.64 C20.77 40.09, 44.16 17.78, 59.74 1.06 M-0.14 67.27 C20.63 41.83, 43.25 17.4, 59.09 -0.75 M1.08 71.51 C13.42 54.98, 31.31 39.32, 64.76 -0.83 M1.07 73.28 C15.96 53.43, 32.62 35.15, 63.65 -1.19 M0.85 77.57 C20.71 53.88, 42.61 29.72, 69.98 0.11 M-1.05 79.88 C17.66 60.28, 34.86 41.54, 68.3 -0.79 M-0.7 85.27 C17.61 64.9, 36.7 42.37, 73.23 -1.79 M-0.41 84.17 C24.8 55.79, 49.8 29.01, 74.27 0.34 M-0.48 92.3 C20.86 67.92, 39.37 48.77, 80.77 -0.43 M-0.98 91.49 C28.11 59.01, 55.09 26.83, 78.52 1.09 M0.14 96.36 C30.3 60.82, 62.55 25.01, 86.5 1.11 M0.35 98.16 C32.37 58.77, 65.34 22.03, 84.52 0.25 M-0.73 102.5 C24.45 76.58, 46.81 51.39, 90.61 -0.32 M-0.68 102.68 C23.73 75.11, 48.32 48.04, 89.54 0.55 M0.53 108.41 C21.85 87.13, 45.05 58.71, 94.83 -0.93 M0.86 109.97 C33.32 72.48, 65.16 36.4, 95.4 -0.42 M-0.48 116.25 C37.79 72.65, 77.45 27.4, 101.07 -0.89 M1.27 115.07 C39.44 70.83, 77.31 24.32, 99.82 -0.19 M-1.47 121.71 C32.75 83.18, 64.32 49.18, 106.62 -1.3 M-0.6 121.13 C24.49 91.24, 50.14 61.71, 107.12 -0.53 M6.34 123.76 C40.6 79.52, 77.88 38.01, 110.83 0.92 M4.11 123.06 C30.23 94, 54.79 65.07, 111.56 0.62 M12.43 120.12 C51.97 77.66, 93.69 28.34, 117.67 0.79 M11.06 121.88 C33.97 94.19, 58.26 67.62, 115.43 0.81 M14.67 120.42 C42.11 91.96, 64.95 61.66, 121.66 -1.4 M16 121.86 C46.9 85.01, 79.61 46.78, 121.64 -0.7 M22.63 122.06 C49.44 87.59, 77.42 57.84, 127.87 -0.76 M20.68 121.18 C60.37 77.67, 96.99 35.71, 127.25 0.3 M26.27 121.31 C49.4 99.63, 70.77 72.46, 132.43 -1.99 M27.09 123.02 C46.63 95.56, 70.28 69.55, 132.64 -0.31 M33.11 122.3 C60.46 89.03, 89.98 53.6, 139.22 -0.35 M31.29 121.43 C69.72 75.67, 108.39 32.23, 137.75 -0.04 M36.93 124.15 C75.76 80.16, 113.24 33.66, 145.08 -0.56 M37.63 122.36 C74.6 77.83, 114.01 32.71, 143.86 0.2 M42.96 121.99 C84.78 77.4, 123.44 27.84, 148.47 2.25 M42.61 121.59 C79.73 82.03, 115.24 40.45, 147.93 1.07 M48.54 122.05 C80.58 84.48, 113.08 45.61, 154.67 -0.41 M47.07 121.74 C79.44 84.22, 111.82 47.81, 154.3 0.77 M52.35 122.69 C80.25 93.03, 103.4 66.67, 160.47 0.7 M54.07 122.19 C94.66 72.51, 136.23 25.45, 159.02 -0.01 M59.07 121.52 C83.97 95.08, 105.33 65.47, 163.35 1.56 M59.08 122.08 C94.16 80.11, 130.12 39.47, 163.64 -0.1 M64.56 120.39 C96.58 82.04, 131 45.3, 170.16 0.03 M63.81 122.27 C91.09 90.33, 116.76 60.39, 169.45 1.11 M68.57 120.5 C104.59 81.9, 136.06 40.25, 174.34 0.84 M68.51 122.32 C103.08 84.06, 137.5 44.56, 175.3 -0.38 M75.94 123.46 C99.92 90.47, 123.86 60.74, 180.58 -1.29 M73.68 122.43 C100.38 94.12, 123.73 64.76, 179.84 -0.14 M81.22 122.32 C105.63 93.11, 129.93 67.22, 185.99 -0.65 M78.42 122.46 C105.78 88.86, 135.04 57.65, 185.36 0.53 M85.95 122.68 C110.88 90.63, 136.45 64.13, 188.19 -0.65 M84.2 121.83 C111.48 91.67, 135.85 62, 189.37 0.48 M91.26 121.72 C111.38 96.41, 131.73 73.6, 191.81 6.2 M89.09 122.56 C121.92 85.74, 154.69 49.58, 189.75 5.56 M95.14 121.25 C119.7 96.1, 142.06 67.37, 189.04 11.8 M95.62 121.17 C121.43 93.7, 145.08 66.9, 190.88 12.08 M101.05 122.83 C127.95 91.24, 156.52 57.6, 191.64 16.6 M100.99 121.71 C120.16 98.55, 140.6 76.4, 190.27 17.87 M107.16 120.77 C130.11 94.3, 151.45 71.29, 192.28 23.41 M106.9 121.68 C135.46 88.1, 165.94 52.13, 189.45 25.92 M111.01 121.22 C130.49 100.44, 148.42 77.14, 189.02 31.15 M111.79 121.05 C131.92 98.67, 149.76 75.97, 189.08 31.16 M118.08 123.99 C141.24 92.9, 167.74 62.71, 189.32 38.25 M116.02 122.92 C142.05 93.98, 165.63 65, 190.53 37.62 M121.7 121.84 C142.58 97.31, 163.55 73.45, 191.97 43.89 M121.37 122.78 C138.67 103.42, 152.29 86.78, 190.41 42.7 M125.05 121.83 C140.67 105.43, 155.09 90.07, 189.66 47.82 M127.65 122.71 C145.94 100.18, 164.64 78.75, 190.75 48.85 M131.73 121.06 C148.93 104.33, 160.88 89.77, 191.64 55.49 M132.8 121.12 C152.05 98.44, 171.27 77.36, 190.22 55.57 M136.35 123.84 C152.92 104.12, 170.38 85.02, 190.25 61.78 M138.19 122.69 C148.9 110.09, 159.9 97.65, 190.3 61.1 M143.82 120.64 C151.8 110.79, 161.78 99.03, 190.92 68.33 M143.38 121.36 C158.85 104.5, 173.21 86.9, 189.83 66.64 M147.98 121.25 C160.17 107.65, 170.33 95.19, 192.09 74.9 M147.41 122.29 C156.69 111.2, 165.64 101.48, 190.55 73.61 M154.8 121.76 C165.62 104.23, 182.03 90.62, 189.8 81.14 M153.59 120.83 C164.64 110.05, 174 98.49, 190.26 80.31 M157.07 121.69 C167.61 113.29, 178.38 102.43, 190.31 85.66 M158.76 122.5 C167.47 111.86, 177.48 101.56, 191.09 84.95 M165.58 123 C173.96 112.29, 178.52 101.83, 190.7 91.84 M164.11 121.92 C170.09 115.19, 175.18 108.73, 190.6 92.32 M167.81 123.2 C175.36 113.51, 183.11 107.22, 190.78 99.16 M170.42 122.83 C176.86 114, 185.9 103.37, 191.38 97 M175.15 122.35 C179.49 118.36, 181.58 110.98, 191.11 104.49 M174.85 121.03 C178.89 117.77, 180.73 115.21, 189.58 103.65 M181.23 120.59 C183.18 117.96, 185.48 114.66, 191.3 109.94 M180.21 122.3 C182.39 118.69, 185.72 116.54, 190.97 110.52 M186.03 122.22 C186.69 120.92, 187.99 119.83, 190.08 116.21 M185.78 121.67 C187.37 119.83, 189.46 117.41, 190.44 116.31" stroke="#ced4da" stroke-width="0.5" fill="none"></path><path d="M1.94 0.24 C51.19 0.45, 100.08 -1.64, 189.09 0.7 M0.17 0.96 C70.54 1, 141.59 1.1, 189.09 -0.42 M190.98 -0.25 C191.94 39.7, 189.64 80.33, 190.36 120.44 M189.39 -0.98 C190.78 32.98, 189.17 67.35, 189.63 121.66 M190.28 123.13 C141.3 122.45, 91.5 121, 1.9 121.57 M190.48 121.56 C130.92 121.93, 71.79 121.61, 0.03 122.79 M-1.34 122.81 C2.08 79.25, 0.1 39.83, -1.86 -0.21 M-0.68 122.81 C0.95 91.52, 1.82 62.18, 0.02 -0.98" stroke="#c92a2a" stroke-width="1" fill="none"></path></g><g transform="translate(28.731067899959953 30.756151666298706) rotate(0 69.5 43)"><text x="69.5" y="33" font-family="Virgil, Segoe UI Emoji" font-size="28px" fill="#c92a2a" text-anchor="middle" style="white-space: pre;" direction="ltr">メール送信</text><text x="69.5" y="76" font-family="Virgil, Segoe UI Emoji" font-size="28px" fill="#c92a2a" text-anchor="middle" style="white-space: pre;" direction="ltr">イベント</text></g><g stroke-linecap="round"><g transform="translate(217.60239108013798 72.32844270502744) rotate(0 42.00836523286162 -0.7669152675240412)"><path d="M0.53 0.8 C14.06 0.57, 68.59 -0.13, 82.38 -0.42 M-0.66 0.17 C13.15 -0.52, 70.79 -2.36, 84.67 -2.33" stroke="#000000" stroke-width="1" fill="none"></path></g><g transform="translate(217.60239108013798 72.32844270502744) rotate(0 42.00836523286162 -0.7669152675240412)"><path d="M58 7.1 C68.43 4.24, 78.77 -2.21, 83.22 -1.8 M56.02 8.18 C63.3 6.54, 69.53 2.49, 84.23 -1.8" stroke="#000000" stroke-width="1" fill="none"></path></g><g transform="translate(217.60239108013798 72.32844270502744) rotate(0 42.00836523286162 -0.7669152675240412)"><path d="M57.63 -13.42 C68.38 -8.09, 78.86 -6.34, 83.22 -1.8 M55.65 -12.34 C63.22 -8.96, 69.54 -7.98, 84.23 -1.8" stroke="#000000" stroke-width="1" fill="none"></path></g></g><g stroke-linecap="round" transform="translate(330.0518042170275 10) rotate(0 119.5 62)"><path d="M0 0 C0 0, 0 0, 0 0 M0 0 C0 0, 0 0, 0 0 M0.4 6.25 C1.52 5.03, 1.67 3.9, 5.58 -0.25 M-0.35 6.58 C0.88 4.64, 2.49 2.9, 5.3 0.27 M0.57 13.01 C5.04 7.07, 5.96 5.43, 9.22 -0.04 M0.69 12.21 C3.51 7.31, 7.5 3.14, 10.63 -0.71 M-1.81 19.31 C1.94 14.52, 8.19 10.12, 13.79 1.22 M-0.26 17.75 C4.73 13.46, 10 8.13, 15.23 -0.18 M-0.29 22.71 C6.8 17.63, 13.96 9.13, 21.48 0.64 M0.75 23.53 C5.17 18.69, 8.58 13.38, 20.59 0.71 M0.7 30.41 C3.79 23.82, 10.35 17.38, 25.35 2.07 M-0.06 29.51 C8.6 20.34, 20.17 8.95, 27.06 -0.26 M-0.07 36.36 C7.82 28.83, 14.95 18.36, 32.38 -0.9 M0.59 36.55 C12.28 24.34, 23.94 9.56, 31.5 -0.15 M0.56 41.83 C10.47 32.35, 17.61 21.6, 38.85 1.04 M1.09 42.29 C15.11 26.76, 28.6 10.52, 37.06 -0.43 M1.25 49.49 C16.55 30.95, 28.33 15.19, 42.73 0.81 M0.03 49.91 C17.28 28.87, 33.29 10.6, 42.33 0.45 M-0.2 56.16 C17.34 36.52, 35.47 16.22, 47.41 0.92 M0.7 54.42 C17.76 34.18, 35.43 13.85, 47.11 -0.31 M0.99 62.74 C12.24 43.91, 25.04 29.36, 54.1 1.35 M0.85 61.19 C13.12 47.16, 24.48 33.77, 53.59 -0.39 M0.21 66.86 C12.64 49.96, 29.39 35.83, 57.55 1.55 M-0.8 68.21 C21.37 44.06, 41.11 20.69, 58.11 0.21 M-1.45 73.11 C14.62 58.52, 29.24 41.58, 62.46 0.35 M0.51 72.91 C15.43 53.7, 33.04 34.98, 64.34 0.66 M-0.06 81.2 C17.14 61.55, 34.13 40.41, 67.2 1.9 M-0.48 79.91 C22.53 53.9, 43.97 29.32, 69.01 -0.1 M0.73 84.67 C23.65 56.23, 51.43 29.25, 76.19 -0.41 M0.54 84.31 C18.36 63.85, 37.26 43.31, 75.17 0.11 M-0.41 90.81 C28.36 59.05, 57.4 26.87, 79.68 2.02 M0.16 91.23 C17.45 69.98, 37.31 47.31, 79.82 -0.73 M-0.91 99.36 C19.59 73.34, 43.61 48.4, 86.08 0.91 M-1.17 97.07 C16.92 76.71, 35.83 54.09, 85.23 0.68 M-1.17 102.67 C24.52 75.36, 50.94 46.05, 89.74 1.05 M0.84 103.31 C19.29 80.95, 37.8 58.71, 90.59 -0.49 M-1.46 107.93 C24.38 81.65, 49.39 49.67, 95.32 0.24 M-0.68 109.31 C36.7 66.49, 73.75 25.42, 95.23 0.29 M1.71 113.83 C28.97 81.24, 58.11 49.07, 101.52 -0.77 M0.82 114.53 C37.59 72.28, 75.47 28.48, 100.4 -0.48 M-0.55 120.51 C25.19 93.15, 50.55 64, 105.5 1.63 M1.01 121.14 C22.18 96.66, 42.82 71.07, 106.41 -0.92 M0.04 127.95 C41.69 80.26, 84.79 33.1, 110.58 -0.11 M1.22 125.94 C43.52 77.9, 86 31.23, 110.41 0.9 M5.47 125.24 C37.96 95.32, 66 62.31, 117.98 -0.04 M6.81 126.28 C45.07 81.99, 82.28 39.11, 116.9 1.13 M12.55 127.23 C49.28 84.52, 84.58 42.67, 121.86 -0.54 M13.26 126.26 C42.03 91.35, 72.27 56.56, 122.8 0.97 M18.48 124.21 C40.9 99.61, 65.62 70.09, 126.47 -0.07 M17.55 125.01 C50.57 87.14, 83.9 51.24, 127.36 0.45 M23.35 125.58 C51.68 91.39, 81.71 56.5, 131.74 1.45 M23.66 126.01 C51.98 92.16, 80.45 61.23, 131.8 -0.28 M28.46 125.83 C51.35 99.76, 72.1 73.48, 139.15 -1.38 M28.74 125.55 C67.1 79.84, 106.24 36.42, 138 0.56 M34.14 124.44 C64.96 86.46, 101.44 48.97, 141.99 -1.52 M33.86 126.37 C70.46 85.39, 106.3 43.64, 142.71 0.89 M38.04 123.84 C72.26 87.7, 107.16 48.15, 147.22 0.44 M40.22 126.06 C68.97 92.03, 100.04 56.32, 148.27 0.37 M45 125.35 C72.07 96.33, 98.56 65.67, 153.77 -1.75 M43.86 126.72 C66.91 97.85, 91.74 70.75, 152.85 0.87 M49.28 127.08 C76.6 93.9, 103.99 60.62, 158.33 -0.1 M49.89 125.38 C89.24 79.08, 129.37 32.12, 159.14 0.04 M56.45 123.93 C86.85 88.9, 118.08 51.5, 165.68 1.57 M55.2 125.64 C85.01 93.62, 115.45 58.05, 164.59 -0.21 M61.63 125.47 C97.7 85.04, 131.48 41.08, 170.5 -0.42 M60.69 126.08 C87.86 94.97, 114.26 64.45, 170.13 -0.09 M67.39 123.91 C107.07 77.07, 151.59 26.58, 175.69 0.32 M65.97 125.91 C104.8 81.76, 144.37 36, 174.37 0.48 M69.96 124.02 C100.1 91.77, 129.4 61.07, 178.18 0.19 M71.61 125.41 C100.27 92.03, 128.59 59.38, 180.32 -0.47 M77.14 127.09 C103.61 92.47, 133.4 59.37, 187.22 -0.49 M75.81 125.52 C116.81 78.02, 156.7 32.66, 185.65 -0.54 M82.54 124.85 C119.19 84.95, 155.74 39.78, 190.22 -1.5 M82.67 126.33 C109.09 91.94, 138.27 60.12, 191.33 0.65 M87.42 127.4 C123.85 84.27, 158.5 44.04, 195.05 -0.8 M86.88 126.66 C117.79 88.45, 152.49 50.79, 195.94 -0.05 M91.03 125.17 C127.61 84.54, 161.37 42.85, 199.87 1.4 M91.95 124.52 C118.13 94.13, 143.39 63.83, 200.33 0.23 M96.37 124.84 C122.53 97.41, 145.13 67.8, 207.4 0.57 M96.93 126.72 C139.82 75.25, 183.79 24.95, 207.82 -1.11 M103.88 128.03 C136.59 84.94, 169.58 46.71, 210.79 -0.15 M101.94 126.1 C131.72 90.73, 162.96 54.83, 211.01 -0.57 M108.52 127.49 C140.94 86.37, 174.27 47.56, 215.88 -0.1 M108.22 125.3 C150.42 77.34, 194.03 28.44, 217.9 -0.08 M114.88 125.31 C138.46 94.42, 167.27 61.58, 223.05 -1.08 M113.11 125.62 C136.16 98.15, 160.83 68.68, 222.65 0.61 M116.81 125.56 C154.1 84.97, 186.43 47.62, 229.51 -1.46 M118.59 125.2 C148.97 93.75, 177.14 60.36, 227.82 0.37 M125.27 124.27 C154.15 95.15, 178.54 60.36, 235.12 -0.22 M123.02 125.63 C167.19 76.02, 208.78 25.85, 233.06 0.33 M128.59 125.33 C160.03 90.04, 193.28 54.1, 240.05 1.71 M128.39 125.42 C162.25 89.05, 193.84 52.75, 238.65 1.04 M132.35 126.47 C164.59 92.84, 197.78 55.74, 239.91 3.93 M133.95 126.59 C163.66 91.88, 192.61 59.58, 241.6 2.62 M139.62 127.17 C169.79 90.57, 197.53 55.43, 243.45 9.75 M139.54 126.16 C160.54 100.54, 180.54 77.82, 241.22 8.46 M146.82 126.6 C171.94 94, 201.48 65.2, 240.15 14.28 M145.21 126.7 C165.19 102.88, 186.23 79.14, 241.64 15.01 M152.04 127.56 C175.39 95.77, 202.28 65.98, 240.21 19.52 M150.51 125.84 C169.12 103.55, 189.44 82.28, 241.63 21.32 M154.81 126.43 C185.84 87.11, 221.72 51.76, 241.41 27.21 M156.16 126.83 C185.85 91.43, 214.48 56.49, 242.48 27.6 M160.44 125.07 C179.48 106.97, 198 83.25, 240.26 33 M161.31 126.05 C190.06 91.62, 220.35 55.78, 240.98 31.98 M167.83 124.81 C193.84 97.74, 216.89 65.5, 241.09 38.73 M165.21 125.57 C186.6 101.97, 207.29 76.65, 241.43 38.28 M173.79 126.35 C198.69 94.35, 226.09 65.32, 241.66 43.02 M172.49 124.63 C189.89 105.61, 209.27 83.1, 241.18 45.3 M176.81 127.71 C199.1 100.09, 224.36 71.68, 243.03 49.25 M176.81 126.22 C201.65 98.26, 224.89 70.93, 241.38 50.37 M181.45 124.15 C197.33 108.3, 211.72 95.28, 243.2 56.25 M182.15 124.59 C197.67 108.59, 214.08 89.82, 240.51 56.59 M186.09 126.17 C204.04 103.32, 222.89 83.61, 242.16 62.47 M186.47 125.77 C202.02 109.21, 215.79 92.61, 242.41 62.65 M191.23 127.34 C213.11 104.01, 229.26 85.62, 241.06 68.21 M192.95 125.14 C206.75 109.6, 221.94 94.47, 241.26 69.6 M199.39 126.34 C209.47 111.75, 221.58 96.94, 241.79 76.22 M197.73 125.92 C213.93 109.06, 229.19 89.39, 242.16 75.12 M203.31 126.83 C214.97 111.7, 228.33 97.36, 242.86 81.75 M203.08 124.72 C214.78 114.64, 224.83 101.34, 240.82 82.06 M209.86 127.45 C220.65 112.16, 230.25 100.82, 242.99 89.16 M209.19 126.07 C220.33 113.6, 229.75 100.12, 242.15 88.71 M216.29 125.68 C223.68 117.74, 229.05 108.23, 240.26 94.1 M215.29 125.94 C222.26 116.21, 228.5 109.41, 241.26 93.62 M218.06 123.84 C227.03 117.66, 232.43 107.19, 241.19 99.78 M219.48 126.31 C224.46 119.77, 231.6 112.19, 241.43 99.32 M224.52 125.76 C230.14 121.13, 233.18 117.55, 242.36 107.55 M225.21 125.4 C229.57 119.44, 235.45 111.66, 241.71 105.65 M229.95 126.81 C235.84 119.05, 240.44 116.56, 240.43 112.85 M230.28 126.39 C232.94 122.74, 234.86 119.08, 241.62 111.37 M234.82 126.42 C237.34 125.02, 237.66 123.52, 241.24 119.37 M234.96 125.83 C237.22 124.07, 239.05 121.84, 241.09 118.75" stroke="#ced4da" stroke-width="0.5" fill="none"></path><path d="M-1.46 1.62 C71.57 0.59, 141.17 1.39, 237.77 -0.67 M0.61 0.58 C58.07 1.03, 115.13 1.77, 239.27 -0.4 M237.96 1.05 C237.62 25.84, 240.05 51.13, 238.02 125.73 M239.29 -0.2 C239.61 34.64, 240.84 68.83, 238.2 123.83 M238.18 124.78 C178.31 123.59, 118.49 123.57, -1.22 124.39 M238.65 123.74 C149.45 121.93, 58.93 123.07, 0.08 124.77 M-0.53 123.79 C0.8 100, -0.55 72.37, 0.73 -0.09 M0.21 123.53 C0.19 77.87, -0.31 32.19, -0.45 0.32" stroke="#000000" stroke-width="1" fill="none"></path></g><g transform="translate(335.0518042170275 36) rotate(0 114.5 36)"><text x="114.5" y="25" font-family="Virgil, Segoe UI Emoji" font-size="28px" fill="#000000" text-anchor="middle" style="white-space: pre;" direction="ltr">確認ダイアログ</text><text x="114.5" y="61" font-family="Virgil, Segoe UI Emoji" font-size="28px" fill="#000000" text-anchor="middle" style="white-space: pre;" direction="ltr">を表示する</text></g><g stroke-linecap="round" transform="translate(722.6448737659832 12.648945876941298) rotate(0 119.5 62)"><path d="M0 0 C0 0, 0 0, 0 0 M0 0 C0 0, 0 0, 0 0 M-1 5.78 C0.41 5.44, 1.87 3.07, 5.14 1.12 M-0.53 6.24 C0.91 4.93, 2.59 3.22, 4.93 0.55 M1.24 11.78 C2.6 8.39, 3.89 5.4, 11.52 -0.96 M-0.41 11.26 C2.57 9.41, 5.04 5.28, 10.49 0.19 M-1.25 17.31 C5.09 9.49, 12.18 4.43, 14.74 1.54 M0.59 17.59 C4.44 12.89, 9.15 8.14, 16.05 -0.08 M1.35 22.11 C6.77 15.8, 14.52 6.44, 20.74 -1.14 M-0.02 23.38 C5.03 18.71, 10.09 12.89, 20.86 0.92 M1.99 28.91 C6.56 25.43, 8.99 18.93, 26.47 -0.85 M-0.84 31.43 C9.3 19.6, 20.32 8.14, 25.89 0.23 M-1.27 36.66 C11.1 22.2, 25.63 9.88, 30.13 1.67 M-1.21 36.67 C8.99 28.3, 17.14 18.54, 32.74 -0.31 M-0.97 43.76 C13.41 27.24, 25.8 12.86, 38.13 1.76 M0.24 43.13 C12.55 28.59, 24.24 14.53, 36.85 -0.01 M1.68 49.4 C10.27 35.03, 22.49 20.96, 44.28 1.83 M0.12 48.21 C8.69 38.84, 18.54 26.97, 42.3 -0.34 M-0.63 53.33 C14.25 36.96, 30.26 23.43, 48.41 0.45 M0.45 54.36 C12.58 39.61, 25.53 24.55, 47.1 0.97 M1.35 61 C14.54 43.14, 29.21 29.91, 51.66 -0.62 M-0.07 61.08 C11.1 48.35, 21.21 35.52, 53.96 -1.01 M-0.04 67.29 C19 42.18, 40.66 20.48, 59.07 0.69 M0.01 66.6 C16.51 46.33, 35.86 26.31, 57.54 -0.53 M0.63 73.84 C21.81 50.46, 42.64 25.45, 62.84 1.74 M-0.47 72.15 C19.45 50.82, 39.74 27.79, 63.31 -0.12 M1.8 80.41 C17.45 59.43, 39.14 34.55, 68.98 0.35 M0.26 79.12 C17.19 60.67, 33.87 41.4, 68.75 -0.66 M-0.49 86.65 C15.11 65.4, 33.3 47.4, 72.49 1.74 M-0.03 85.82 C18.51 63.61, 37.24 41.18, 74.18 -0.41 M0.02 91.17 C28.53 58.23, 57.51 23.29, 80.08 -0.28 M0.8 90.46 C23.14 64.46, 46.11 37.3, 80.02 0.98 M0.41 97.35 C22.39 73.89, 46.87 44.61, 85.35 -0.37 M0.31 97.83 C28.76 65.79, 55.75 32.2, 85.58 -0.59 M0.49 104.67 C23.58 78.98, 44.82 54.25, 91.44 -0.51 M1.09 102.51 C34.49 63.29, 70.68 22.03, 90.34 0.34 M0.82 110 C33.23 71.64, 68.09 31.06, 94.27 1.04 M-0.71 109.16 C25.41 80.41, 50.8 52.7, 94.73 -0.3 M1.19 115.44 C26.73 84.26, 52.24 54.8, 101.2 -1.23 M0.78 116.16 C25.99 84.63, 52.88 54.27, 101.42 -0.08 M-0.64 121.34 C40.28 74.89, 78.72 31.74, 106.2 -0.98 M0.4 121.63 C36.17 81.54, 72.31 38.41, 106.07 -1.16 M3.5 127.89 C29.27 91.53, 59.3 60.47, 112.58 1.05 M2.05 126.86 C38.68 84.79, 74.06 43.91, 110.65 -0.26 M7.6 127.43 C37.42 88.4, 73.58 51.31, 115.51 0.8 M6.68 125.55 C42.49 84.96, 77.25 43.56, 115.55 1.02 M11.44 124.3 C38.26 93.72, 62.66 63.17, 119.94 0.25 M11.84 125.56 C37.06 96.96, 61.08 67.52, 122.14 0.41 M17.06 127.59 C59.52 75.5, 104.13 24.75, 128.64 -1.28 M18.75 126.59 C52.25 85.31, 85.62 46.79, 126.33 0.23 M22.1 125.98 C51.41 91.19, 83.18 54.73, 130.68 -1.32 M23.23 126.88 C56.46 86.33, 90.22 47.27, 131.69 0.06 M29.02 124.78 C69.91 77.55, 114.18 29.16, 138.15 0.81 M29.56 125.21 C54.62 93.7, 82.58 61.68, 137.77 -0.25 M33.8 125.06 C56.17 98.77, 80.83 68.21, 143.33 1.06 M32.69 125.89 C69.01 86.16, 102.38 47.7, 143.82 -0.64 M39.12 124.61 C70.03 94.31, 97.67 60.55, 147.37 1.74 M40.07 124.67 C68.72 93.91, 94.72 60.64, 149.12 0.16 M43.01 125.11 C88.39 75.97, 128.57 25.09, 153.51 0.54 M43.9 125.76 C75.28 90, 107.82 53.72, 154.74 0.55 M48.09 125.08 C83.72 88.77, 114.84 53.04, 159.71 1.61 M48.93 125.76 C80.79 91.04, 113.39 54.07, 157.82 1.09 M54.24 127.07 C85.69 90.37, 115.19 58.46, 163.91 0.63 M54.73 126.66 C86.76 88.13, 117.73 50.88, 165.36 0.4 M59.77 126.6 C83.5 97.93, 104.48 74.36, 168.66 -0.11 M61.48 125.8 C91.35 90.47, 122.79 56.89, 168.5 0.21 M66.13 127.31 C88.47 99.85, 112.61 73.02, 174.34 1.29 M66.25 126.84 C96.53 90.06, 127.92 54.52, 174.3 -0.76 M71.08 125.98 C92.58 98.77, 117.72 74.05, 179.83 1.48 M70.79 125.7 C111.08 77.31, 154.52 30.3, 180.02 0.24 M77.4 127.61 C115.1 82.31, 150.59 37.47, 187.7 0.85 M75.77 125.58 C100.46 99.28, 125.03 69.81, 184.89 -0.08 M82.04 126.46 C120.37 79.8, 161.34 30.67, 188.9 -1.32 M82.61 124.87 C119.89 82.94, 156.42 38.05, 190.42 -0.05 M84.86 125.13 C116.34 91.18, 146.21 53.77, 195.96 -1.91 M87.76 126.2 C128.46 77.95, 170.61 30.7, 196.15 -1.12 M93.77 123.65 C120.1 94.79, 150.68 59.18, 199.66 1.2 M92.42 126.3 C130.65 81, 170.3 35.72, 201.96 -0.85 M97.43 126.47 C139.52 79.31, 178.53 33.24, 206.22 -1.85 M96.91 125.09 C123.07 95.57, 149.22 67.26, 207.82 -0.94 M101.81 124.35 C130.61 94.88, 161.22 59.9, 209.99 -1.84 M101.71 126.27 C137.74 83.58, 174.49 42.29, 212.09 -0.29 M106.12 125.6 C137.39 92.29, 165.09 58.88, 218.65 -1.4 M107.11 126.66 C149.99 79.48, 189.08 34.61, 217.31 -1.02 M112.78 125.49 C144.04 90.38, 177.98 56.02, 221.86 0.07 M113.68 126.34 C142.78 90.96, 173.31 55.4, 222.47 0.53 M118 125.93 C157.8 83.49, 195.92 35.4, 228.51 -0.58 M118.46 126.39 C154.6 83.39, 192.56 40.23, 228.77 -0.3 M122.42 124.67 C154.98 94.4, 184.1 57.43, 231.34 0.86 M124.23 126.88 C161.74 82.77, 198.6 40.22, 233.96 0.56 M130.29 126.26 C166.86 84.71, 200.13 41.14, 239.52 1.74 M130.27 125.8 C159.59 92.47, 187.98 58.14, 237.38 0.58 M136.2 127.15 C163.72 91.55, 189.92 62.18, 240.62 2.13 M133.65 125.06 C168.98 85.11, 203.36 43.43, 241.65 2.08 M140.26 126.78 C165.17 97.74, 193.82 66.05, 241.22 7.14 M140.02 125.44 C163.36 97.77, 186.24 71.42, 241.78 9.55 M146.73 124.6 C175.97 88.46, 208.32 49.18, 241.38 14.16 M144.91 126.59 C183.61 81.42, 221.44 39.45, 241.26 14.68 M151.28 127.13 C171.77 102.63, 190.68 77.64, 241.45 19.04 M150.44 125.94 C172.65 102.92, 191.77 79.8, 241.49 21.54 M155.66 125.07 C181.27 99.02, 205.33 70.86, 239.86 28.05 M154.69 126.73 C184.16 92.55, 213.3 59.5, 241.13 26.4 M162.84 124.31 C190.66 91.89, 218.71 59.68, 243.13 31.25 M160.42 124.94 C181.54 102.81, 201.33 79.37, 242.73 32.02 M167.77 127.03 C189.43 98.81, 211.17 71.56, 241.8 37.82 M166.38 125.29 C193.46 95.18, 219.82 65.56, 242.25 38.86 M172.5 126.75 C199.58 93.78, 224.61 66.91, 242.99 45.8 M172.07 126.16 C188.16 108.85, 203.6 90.01, 242.17 43.78 M176.92 125.38 C200.47 97.05, 223.46 72.21, 243.08 49.2 M177.06 125.62 C191.47 109.09, 206.29 92.02, 241.83 51.02 M181.92 124.29 C194.26 110.99, 210.17 92.43, 240.22 55.83 M181.72 126.34 C196.02 110.27, 210.13 93.54, 240.49 56.92 M188.08 125.39 C207.24 102.93, 229.81 75.99, 242.33 62.55 M186.54 125.62 C206.08 103.25, 227.4 79.26, 240.95 63.11 M194.85 126.16 C209.13 106.54, 227.32 86.23, 241.05 68.66 M192.88 126.29 C207.43 107.56, 223.81 89.83, 242.07 68.8 M199.27 124.76 C209.64 112.2, 220.33 101.39, 242.28 75.64 M198.29 126.73 C214.7 106.13, 230.28 87.52, 242.91 74.42 M203.14 127.02 C213.45 113.19, 222.66 103.62, 240.85 80.27 M203.27 125.84 C214.31 112.18, 226.17 99.97, 242.01 81.62 M207.67 127.58 C215.74 117.01, 225.48 104.23, 243.08 86.4 M208.53 124.96 C216.99 115.15, 227.05 105.21, 241.52 89.02 M212.73 124.9 C221.11 117.1, 225.13 114.03, 240.72 94.29 M213.81 124.89 C220.85 117.26, 228.54 108.76, 241.77 94.35 M219.49 126.36 C224.94 117.83, 229.26 113.89, 242.95 99.91 M219.15 125.85 C225.34 119.71, 231.03 113.16, 240.8 99.78 M224.99 128.03 C228.27 122.94, 233.05 116.4, 240.88 104.74 M224.98 125.15 C227.3 120.92, 231.39 118.22, 241.52 106.53 M228.26 124.17 C233.42 119.2, 237.79 116.36, 240.4 111.02 M230.67 125.49 C234.68 120.38, 237.95 115.67, 241.95 111.91 M234.15 125.9 C238.05 122.6, 240.35 120.14, 241.73 118.67 M234.68 126.06 C236.91 123.34, 238.52 121.42, 241.98 118.23" stroke="#ced4da" stroke-width="0.5" fill="none"></path><path d="M-0.91 1.43 C85.91 1.61, 169.31 2.58, 238.95 0.04 M-0.66 0.05 C52.23 -0.09, 104.65 -0.5, 238.45 0.23 M239.74 -0.17 C239.02 31.68, 241.37 64.08, 240.11 125.74 M239.03 0.9 C239.71 31.23, 239.73 60.92, 238.22 124.88 M238.39 124.86 C163.58 121.55, 87.27 122.41, 0.41 123.58 M239.19 123.85 C157.7 122.86, 78.02 123.64, 0.74 123.93 M0.52 122.54 C-0.34 91.8, 1.33 62.07, 1.51 0.7 M-0.21 123.69 C0.19 78.86, 0.17 34.08, 0.14 0.95" stroke="#000000" stroke-width="1" fill="none"></path></g><g transform="translate(727.6448737659832 56.6489458769413) rotate(0 114.5 18)"><text x="114.5" y="25" font-family="Virgil, Segoe UI Emoji" font-size="28px" fill="#000000" text-anchor="middle" style="white-space: pre;" direction="ltr">カウントダウン</text></g><g stroke-linecap="round"><g transform="translate(995.8488857256993 80.73623347930629) rotate(0 45.55017004613569 -0.20812447238716913)"><path d="M1.18 -1.05 C16.07 -1.15, 73.83 0.42, 88.64 0.45 M0.34 1.01 C15.64 1.07, 75.9 -1.26, 90.76 -1.43" stroke="#000000" stroke-width="1" fill="none"></path></g><g transform="translate(995.8488857256993 80.73623347930629) rotate(0 45.55017004613569 -0.20812447238716913)"><path d="M61.1 7.66 C70.29 7.11, 74.9 2.52, 91.78 -1.29 M62.82 9.31 C69.28 6.91, 73.78 4.99, 90.18 -0.53" stroke="#000000" stroke-width="1" fill="none"></path></g><g transform="translate(995.8488857256993 80.73623347930629) rotate(0 45.55017004613569 -0.20812447238716913)"><path d="M60.56 -12.85 C70.06 -8.43, 74.8 -8.03, 91.78 -1.29 M62.28 -11.21 C68.81 -9.37, 73.42 -7.05, 90.18 -0.53" stroke="#000000" stroke-width="1" fill="none"></path></g></g><g stroke-linecap="round" transform="translate(1107.9696703817617 10.07875953693474) rotate(0 119.5 69.5)"><path d="M0 0 C0 0, 0 0, 0 0 M0 0 C0 0, 0 0, 0 0 M-0.74 5.82 C1.08 4.64, 2.85 3.8, 4.24 0.37 M-0.08 6.38 C1.02 4.64, 2.18 3.27, 5.09 0.1 M0.93 13.07 C1.87 9.44, 5.39 6.31, 11.85 -0.25 M-0.13 11.81 C4.58 7.01, 8.22 3.24, 10.59 -0.29 M0.63 17.87 C5.92 14.19, 10.37 5.94, 15.15 -1.31 M0.76 19.36 C3.88 12.87, 8.68 9.09, 16.27 0.84 M0.92 25.71 C7.59 15.73, 13.05 9.08, 19.98 -0.61 M0.38 24.97 C5.58 16.81, 13.57 9.87, 20.88 0.14 M-1.37 30.27 C8.6 20.41, 15.23 9.94, 24.8 1.59 M-0.45 29.62 C6.22 22.29, 11.54 14.94, 25.26 0.42 M-1.28 35.97 C7.72 29.59, 12.34 20.66, 32.33 0.76 M-0.73 37.86 C11.73 22.11, 25.27 6.82, 32.76 -0.91 M1.64 44.45 C11.27 27.9, 21.56 15.78, 35.72 0.04 M-0.31 42.52 C9.37 31.05, 20.2 18.63, 35.94 -0.38 M0.37 50.7 C11.99 33.99, 24.45 19.2, 40.81 0.09 M0.07 48.52 C15.86 30.12, 33.39 11.21, 42.83 0.11 M2.14 53.81 C10.44 41.42, 23.64 26.54, 47.98 -0.89 M0.36 54.12 C9.91 42.94, 20.54 29.62, 47.58 0.8 M-1.84 60.85 C17.26 40.27, 31.86 23.31, 54.44 -1.27 M-0.06 60.49 C15.04 45.72, 28.52 29.24, 52.76 0.56 M1.37 65.59 C16.82 51.78, 28.16 32.01, 60.05 -0.03 M-0.87 66.95 C23.23 40.74, 44.74 13.67, 57.99 0.52 M-0.55 72.69 C18.02 52.28, 38.19 31.38, 65.64 1.15 M-0.76 72.78 C19.77 51.55, 38.03 30.58, 64.24 0.48 M-2.05 79.87 C19.14 58.82, 41.09 34.64, 66.81 1.86 M-0.44 79.99 C19.02 57.28, 37.56 36.95, 68.5 0.55 M-0.03 86.61 C22.19 59.51, 41.91 33.59, 76.25 0.88 M-0.1 85.6 C15.57 66.56, 30.02 50.22, 74.03 -0.4 M1.93 92.08 C21.96 65.06, 46.61 41.89, 77.55 0.13 M0.32 92.17 C16.61 72.58, 33.9 53.16, 79.03 0.86 M1.25 99.83 C22.88 69.96, 48.11 42.08, 83.51 -1.42 M-0.28 98.1 C17.06 77.22, 36.14 57.37, 84.93 0.38 M-0.57 103.98 C31.93 62.94, 69.33 25.84, 89.96 0.23 M0.78 104.38 C31.83 67.37, 61.83 30.85, 91.03 0.62 M-0.85 109.41 C21.5 87.55, 43.36 59.99, 94.06 -0.01 M0.02 110.4 C34.28 69.58, 70.21 27.26, 94.78 -1.04 M1.95 114.44 C36.46 77.42, 68.26 35.1, 100.13 -0.32 M-0.67 115.2 C27.52 83.59, 55.15 50.29, 100.48 -0.78 M2 122.77 C40.59 75.14, 81.78 30.25, 105.95 -2.07 M0.7 121.05 C27.8 91.48, 56.56 58.2, 105.47 0.21 M-0.22 130.16 C38.57 83.35, 80.3 36.01, 112.58 -1.88 M-0.22 128.68 C41.98 80.65, 82.36 33.61, 110.92 -0.76 M-0.83 132.65 C28.04 101.4, 55.95 72.83, 117.99 -0.92 M-0.13 133.08 C30.33 100.18, 61.6 64.33, 115.3 -0.58 M-0.79 139.94 C39.15 91.68, 80.2 46.42, 122.2 -0.73 M-0.41 139.55 C32.09 102.98, 62.96 66.69, 122.45 -0.55 M4.35 141.11 C53.26 87.73, 95.65 39.16, 126.35 -1.04 M6.07 138.92 C41.03 100.04, 76.88 61.14, 126.55 0.36 M12.51 140.11 C43.86 100.7, 77.6 61.01, 132.33 0.94 M10.85 139.7 C53.49 91.64, 95.93 40.68, 132.69 -0.16 M16.43 140.61 C55.76 93.12, 97.69 45.92, 138.64 0.44 M16.21 138.49 C50.56 103.41, 82.89 64.49, 136.6 0.74 M22.98 141.23 C64.3 91.26, 104.38 44.86, 144.68 1.05 M22.31 139.84 C62.66 93.39, 101.6 45.94, 143.84 0.6 M28.76 140.21 C61.42 103.32, 92.14 64.64, 146.55 0.71 M27.76 140.47 C59.01 101.89, 89.77 66.88, 147.54 0.22 M31.18 137.62 C71.84 93.58, 109.78 45.67, 153.38 -0.41 M32.61 140.09 C63.55 105.84, 95.62 69.59, 153.61 -0.86 M37.64 139.53 C66.18 106.6, 93.08 75.58, 159.14 2.08 M38.34 139.18 C77.19 92.5, 117.71 44.86, 158.49 0.19 M43.07 140.71 C91.99 83.24, 139.27 31.95, 162.96 0.67 M43.44 140.24 C70.67 108.87, 97.21 76.72, 164.29 -0.97 M47.83 140.56 C78.06 110.11, 102.74 79.46, 168.92 1.95 M48.12 139.39 C82.72 101.42, 116.72 62.06, 168.62 0.69 M52 141.03 C94.09 92.41, 135.23 46.03, 174.38 -1.52 M54.53 138.82 C96.44 90.11, 138.45 41.81, 175.69 -0.92 M57.16 138.6 C89.35 105.45, 119 69.98, 181.78 -1.21 M59.49 140.36 C96.07 95.8, 133.08 52.11, 180.15 -0.47 M64.75 138.18 C108.46 89.79, 151.02 42.26, 186.97 -0.71 M64.68 140.02 C110.5 86.58, 155.07 36.28, 186.19 0.3 M69.85 141.07 C97.75 111.14, 124.55 78.16, 191.01 -1.8 M69.38 139.52 C112.78 88.4, 156.6 38.8, 191.35 -0.84 M75.49 138.87 C102.42 107.99, 130.15 76.06, 196.49 -0.51 M74.7 138.77 C102.33 107.88, 131.82 73.82, 195.7 -1.12 M78.51 141.47 C107.86 108.43, 136.83 74.11, 199.33 -1.15 M80.27 139.5 C126.2 86.93, 173.94 31.52, 201.54 -0.22 M83.81 138.91 C127.33 88.9, 174.46 35.75, 205.1 -0.44 M86.48 139.69 C126.05 92.86, 167.72 45.24, 206.68 -0.76 M90.2 141.39 C126.9 95.08, 167.36 50.77, 212.85 -1.5 M91.18 139.17 C122.2 103.49, 153.08 68.71, 212.08 0.27 M96.7 141.18 C141.82 85.44, 185.62 33.69, 219.38 -1.95 M95.94 140.1 C125.49 103.41, 155.24 69.7, 217.14 -1.01 M100.35 140.54 C135.24 98.55, 172.05 59.06, 223.09 0.03 M100.7 140.56 C133.07 102.99, 165.91 64.42, 223.37 -0.78 M106.54 137.67 C138.67 101.34, 173.49 64.56, 228.28 1.63 M106.05 139.03 C131.4 109.63, 155.67 82.49, 227.64 -0.05 M110.81 138.68 C142.84 102.99, 176.43 65.05, 232.97 1.38 M111.92 139.93 C139.82 105.74, 167.38 74.55, 233.87 -0.08 M117.14 139.47 C148.39 104.64, 179.39 68.98, 236.54 -0.2 M117.82 140.19 C145.69 107.32, 173.89 74.36, 237.62 -0.12 M123.83 137.71 C145.95 109.12, 171.19 84.1, 240.87 3.87 M121.53 138.74 C167.14 85.75, 212.82 34.41, 241.11 1.62 M129.72 138.75 C169.07 92.47, 207.33 46.33, 242.04 8.2 M127.33 139.04 C173.5 85.69, 218.54 34.06, 241.84 8.79 M132.08 139.59 C166.63 100.08, 198.58 63.03, 243.95 13.19 M132.73 138.64 C163.62 102.94, 195.03 68.16, 242.09 13.58 M136.87 138.78 C160.7 113.09, 182.74 89, 240.25 22.01 M138.68 139.7 C176.14 96.72, 213.72 52.91, 241.77 21.35 M144.61 140.39 C166.13 114.45, 190.31 87.57, 243.24 27.53 M144.29 140.5 C171.99 107.25, 201.45 74.12, 241.26 26.13 M147.98 140.67 C168.37 115.13, 187.72 93.39, 241.04 32.48 M148.37 140.75 C172.27 114.51, 195.93 86.48, 241.42 32.4 M152.92 140.26 C183.82 107.14, 210.35 74.29, 240.6 39.7 M153.5 139.37 C181.82 107.58, 211.51 75.32, 242.58 39.87 M157.76 138.38 C177.9 117.75, 197.15 95.88, 243.42 44.74 M158.93 139.25 C187.78 107.61, 217.05 73.5, 241.1 43.77 M164.87 137.47 C187.24 112.7, 213.08 86.38, 241.33 49.89 M165.23 139.53 C186.45 115.7, 208.42 88.89, 241.1 51.37 M168.41 141.2 C190.72 116.78, 209.77 90.68, 240.15 56.77 M169.94 140.18 C185.07 120.23, 201.53 101.99, 240.99 58.25 M174.74 138.36 C192.01 120.65, 210.85 99.41, 242.8 64.61 M174.86 139.45 C190.13 123.53, 204.45 106.13, 242.53 63.13 M182.16 140.79 C195.82 122.52, 209.79 105.9, 242.36 70.37 M179.71 140.49 C194.1 123.35, 205.93 108.26, 240.78 69.58 M185.24 139.37 C201.59 123.75, 212.91 111.42, 243.77 75.48 M185.36 138.8 C207.22 115.76, 227.26 92.28, 241.67 75.36 M190.65 137.89 C204.47 123.63, 221.69 106.61, 241.61 81.72 M191.58 138.84 C206.33 120.47, 223.4 102.78, 242.74 81.93 M197.46 141.03 C212.69 120.58, 230.8 96.95, 241.76 89.95 M196.22 139.47 C210.67 123.21, 223.86 106.16, 240.69 87.74 M200.94 140.31 C215.64 124.34, 229.63 104.9, 242.53 92.3 M200.94 140.57 C214.69 125.07, 227.9 110.02, 241.37 93.96 M208.9 137.97 C218.68 128.53, 229.02 117.07, 241.68 98.33 M208.47 138.52 C216.31 128.21, 224.64 117.65, 240.78 99.37 M213.49 140.99 C221.33 131.96, 229.59 120.57, 240.15 103.72 M212.24 138.74 C219.15 131.47, 226.41 122.7, 241.67 106.52 M219.48 140.92 C221.98 133.54, 230.46 126.83, 241.85 112.25 M217.7 139.24 C225.33 130.8, 232.84 122.45, 241.2 112.34 M224.15 139.94 C228.01 133.23, 234.54 128, 241.27 120.43 M223.95 139.12 C228.62 132.89, 234.47 126.64, 241.56 118.4 M229.51 138.7 C233.27 136.64, 235.48 133.33, 242.66 123.71 M229.04 140.13 C232.49 135.62, 234.15 131.45, 240.93 123.67 M234.02 138.81 C234.77 136.83, 237.34 134.32, 241.28 129.44 M233.67 139.34 C235.46 137.9, 236.97 135.47, 241.54 130.42" stroke="#ced4da" stroke-width="0.5" fill="none"></path><path d="M0.63 -0.47 C59.34 1.02, 117.35 1.03, 238.97 -1.36 M-0.32 0.67 C51.54 -0.81, 104.29 -0.6, 238.2 0.83 M238.39 1.56 C239.76 35.05, 239.25 69.46, 238.53 138.66 M239 -0.14 C239.84 52, 239.62 102.95, 239.34 138.8 M240.31 137.37 C167.67 139.88, 94.9 140.13, 1.03 140.44 M239.27 138.8 C173.45 137.87, 109 136.78, 0.13 138.96 M1.11 138.98 C1.64 94.78, -0.23 46.34, 1.08 -0.62 M0.17 139.59 C0.44 105.29, -0.03 71.39, 0.71 -0.3" stroke="#c92a2a" stroke-width="1" fill="none"></path></g><g transform="translate(1112.9696703817617 62.07875953693474) rotate(0 114.5 17)"><text x="114.5" y="27" font-family="Helvetica, Segoe UI Emoji" font-size="28px" fill="#c92a2a" text-anchor="middle" style="white-space: pre;" direction="ltr">送信実行</text></g><g stroke-linecap="round"><g transform="translate(602.7951410759338 82.84868120699764) rotate(0 44.98081416826494 -0.07035930885001562)"><path d="M1.12 -0.14 C16.13 -0.26, 75.09 -0.23, 89.71 -0.28 M0.25 -1.25 C15.13 -1.23, 73.56 0.8, 88.72 1.11" stroke="#000000" stroke-width="1" fill="none"></path></g><g transform="translate(602.7951410759338 82.84868120699764) rotate(0 44.98081416826494 -0.07035930885001562)"><path d="M60.03 10.45 C67.48 6.11, 74.91 7.14, 88.47 2.88 M61.01 10.68 C72.05 7.63, 82.85 2.84, 88.24 1.44" stroke="#000000" stroke-width="1" fill="none"></path></g><g transform="translate(602.7951410759338 82.84868120699764) rotate(0 44.98081416826494 -0.07035930885001562)"><path d="M60.6 -10.07 C67.98 -8.83, 75.25 -2.22, 88.47 2.88 M61.58 -9.83 C72.41 -4.85, 82.99 -1.6, 88.24 1.44" stroke="#000000" stroke-width="1" fill="none"></path></g></g><g stroke-linecap="round"><g transform="translate(448.17603395905365 171.54934873372315) rotate(0 -0.2360754625836421 50.150562527288116)"><path d="M0.43 -1.11 C0.57 15.44, 0.05 83.44, 0.06 100.43 M-0.81 0.92 C-0.75 18.09, -1.01 84.6, -0.89 101.41" stroke="#000000" stroke-width="1" fill="none"></path></g><g transform="translate(448.17603395905365 171.54934873372315) rotate(0 -0.2360754625836421 50.150562527288116)"><path d="M-13.02 73.24 C-10.27 80.45, -7.22 86.94, 0.58 101.58 M-11.54 73.97 C-8.07 80.97, -4.34 91.24, 0.11 100.57" stroke="#000000" stroke-width="1" fill="none"></path></g><g transform="translate(448.17603395905365 171.54934873372315) rotate(0 -0.2360754625836421 50.150562527288116)"><path d="M7.5 73.22 C5.47 80.51, 3.74 87, 0.58 101.58 M8.98 73.95 C6.17 80.95, 3.61 91.23, 0.11 100.57" stroke="#000000" stroke-width="1" fill="none"></path></g></g><g stroke-linecap="round"><g transform="translate(837.6843587155349 174.6582657088394) rotate(0 0.44312063656002465 47.07266406178735)"><path d="M-0.48 -0.97 C-0.57 15.05, -0.66 79.4, -0.75 95.12 M1.46 1.13 C1.77 16.91, 1.57 77.92, 1.55 93.42" stroke="#000000" stroke-width="1" fill="none"></path></g><g transform="translate(837.6843587155349 174.6582657088394) rotate(0 0.44312063656002465 47.07266406178735)"><path d="M-10.27 63.89 C-4.65 71.49, -4.74 82.43, 2.25 91.57 M-8.73 65.75 C-6.27 72.21, -4.42 77.91, 2.35 92.92" stroke="#000000" stroke-width="1" fill="none"></path></g><g transform="translate(837.6843587155349 174.6582657088394) rotate(0 0.44312063656002465 47.07266406178735)"><path d="M10.25 63.93 C10.07 71.44, 4.18 82.36, 2.25 91.57 M11.79 65.79 C9.79 72.35, 7.18 78.05, 2.35 92.92" stroke="#000000" stroke-width="1" fill="none"></path></g></g><g transform="translate(465.90461031163176 201.74407457894347) rotate(0 50.5 15)"><text x="50.5" y="24" font-family="Helvetica, Segoe UI Emoji" font-size="20px" fill="#000000" text-anchor="middle" style="white-space: pre;" direction="ltr">キャンセル</text></g><g transform="translate(871.5716598840013 206.8089831940166) rotate(0 50.5 15)"><text x="50.5" y="24" font-family="Helvetica, Segoe UI Emoji" font-size="20px" fill="#000000" text-anchor="middle" style="white-space: pre;" direction="ltr">キャンセル</text></g><g stroke-linecap="round" transform="translate(328.6951064012333 304.8828735199081) rotate(0 119.5 69.5)"><path d="M0 0 C0 0, 0 0, 0 0 M0 0 C0 0, 0 0, 0 0 M-0.75 6.86 C0.45 5.83, 1.82 4.27, 4.79 0.93 M-0.01 6.7 C0.85 4.8, 2.92 3.25, 5.2 0.02 M1.19 12.94 C3.35 11.07, 3.05 7.3, 9.09 0.98 M-0.06 12.27 C3.31 7.56, 8.11 3.67, 9.85 -0.62 M-0.61 19.16 C4.98 13.02, 10.18 5.82, 15.37 -0.98 M-0.72 17.46 C5.38 12.95, 8.92 6.69, 14.76 -0.36 M2.02 24.3 C8.75 17.26, 13.77 6.21, 20.01 1.68 M0.05 23.48 C7.44 16.66, 12.62 9.25, 20.94 0.54 M-0.41 29.02 C9.62 22.4, 15.68 8.39, 26.1 1 M0.37 30.4 C8.17 21.67, 15.61 11.06, 25.79 0.46 M1.45 35.19 C10.07 25.02, 20.62 13.37, 30.33 -0.97 M-0.77 36.96 C8.23 26.35, 18.11 16.59, 32.1 0.67 M2.03 43.47 C13.19 25.02, 28.37 11.58, 35.26 -0.83 M0.95 42.86 C12.59 27.51, 26.56 11.41, 36.2 0.15 M0.76 48.62 C13.74 33, 29.86 14.63, 42.52 -0.81 M0.79 48.02 C12.02 35.47, 22.19 23.41, 41.71 -0.5 M-1.31 53.28 C9.29 44.24, 19.69 30.8, 49.5 -1.64 M0.04 55.24 C17.78 33.71, 37.84 12.21, 47.82 -0.03 M-0.92 59.06 C19 39.18, 37.16 20.23, 54.53 -1.56 M0.33 61.23 C15.62 41.31, 33.52 22.65, 53.07 -0.59 M0 68.36 C23.56 42.32, 46.31 13.79, 57.58 -1.2 M0.72 67.26 C15.79 49.47, 30.46 30.71, 57.66 -0.78 M-1.73 71.63 C14.19 53.4, 33.39 34.02, 65.42 1.46 M-0.7 72.45 C20.76 48.1, 43.69 23.12, 63.18 0.35 M-0.56 80.76 C23.75 49.97, 48.49 22.93, 68.35 2.15 M-0.27 79.93 C22.17 53.31, 46.05 26.51, 68.94 0.24 M0.32 84.83 C20.82 58.76, 43.99 37.82, 73.34 -0.64 M-0.63 84.58 C18.29 63.54, 37.92 40.92, 73.72 -1.19 M-0.36 91.22 C15.2 73.44, 32.31 51.85, 80.75 1.44 M0.56 91.04 C24.29 64.1, 47.21 37.85, 80.08 -0.57 M0.62 97.36 C23.77 71.99, 45.96 46.03, 85.51 -0.36 M0.74 97.35 C27.46 66.69, 54.29 35.68, 84.11 -1.16 M0.94 104.11 C30.98 66.14, 64.9 27.19, 89.8 -0.85 M1.03 103.21 C27.12 74.71, 51.33 45.61, 89.72 0.22 M0.67 111.03 C18.43 88.45, 36.56 64.64, 96.27 0.21 M-0.22 109.23 C32.72 74.6, 65.09 38.25, 96.44 -0.97 M-1.18 114.21 C24.82 86.56, 49.86 61.03, 100.65 1.13 M-0.31 115.59 C41.71 70.32, 80.97 23.7, 99.68 0.1 M-1.95 121.34 C39.21 79.24, 78.58 32.38, 105.04 -0.61 M0.11 121.04 C29.76 88.8, 56.03 57.1, 106.53 -0.49 M1.16 129.49 C44.2 77.92, 85.97 25.64, 110.52 -1.34 M0.13 127.62 C43.25 76.38, 88.56 25.61, 112 -0.4 M-0.9 132.44 C24.19 107.9, 45.91 81.92, 117.7 -1.35 M0.2 133.87 C28.56 102.39, 55.72 70.48, 116.22 -0.29 M1.57 141.26 C47.57 85.08, 95.12 29.41, 122.71 -1.6 M1.27 140.3 C47.89 84.08, 96.69 28.59, 121.91 -0.69 M6.18 141.08 C33.42 108.54, 63.4 78.63, 127.16 1.62 M5.62 140.07 C46.24 95.16, 85.85 48.52, 127.04 0.35 M9.33 137.73 C51.88 95.22, 91.36 50, 132.64 0.45 M10.28 138.59 C55.16 88.48, 100.12 39.5, 132.86 0.85 M18.51 137.73 C57.36 92.08, 93.74 47.12, 139.47 0.59 M16.95 139.33 C61.37 87.4, 105.56 35.37, 137.25 0.97 M22.41 138.62 C57.98 97.93, 90.68 59.55, 141.81 0.29 M22.67 139.15 C46.83 112.22, 71.24 83.14, 143.48 -0.11 M25.46 140.79 C61.54 102.27, 94.66 63.43, 146.43 -0.51 M26 139.94 C66.14 91.18, 106.69 43.88, 147.48 -0.12 M33.76 140.75 C74.7 94.42, 112.4 44.46, 151.83 -1.18 M31.51 138.88 C70.41 96.73, 106.91 54.61, 154.62 -0.84 M39.08 138.52 C82.54 88.62, 127.38 34.78, 158.95 0.68 M37.39 139.66 C83.47 86.74, 130.25 33.14, 159.03 -0.04 M43.38 139.35 C79.28 99.2, 115.48 56.51, 166.37 0.33 M42.56 139.19 C89.99 83.79, 137.79 29.96, 164.34 -0.58 M47.51 140.85 C78.2 106.12, 107.55 73.93, 169 -1.08 M48.94 140.58 C95.1 85.89, 140.5 32.69, 168.95 -0.39 M52.39 138.03 C95.46 90.19, 137.27 41.16, 173.23 -1.46 M53.27 139.08 C83.62 104.77, 112.59 71.7, 174.87 0.48 M59.68 138.37 C86.86 107.1, 113.58 78.62, 179.66 -0.65 M59.34 139.08 C82.93 109.91, 107.66 83.66, 180.95 -0.19 M65 138.85 C98.34 100.05, 133.35 58.65, 186.28 -1.44 M63.81 140.05 C90.4 111.29, 115.93 81.63, 185.69 0.21 M70.58 141.07 C115.96 83.18, 165.96 31.01, 191.12 -0.45 M68.48 139.57 C97.57 108.31, 123.46 75.41, 190.48 1.06 M74.5 140.24 C101.1 107.33, 129.29 77.35, 195.49 -1.1 M74.06 139.2 C107.62 103.67, 140.2 66.97, 196.44 -0.49 M79.32 140.33 C121.31 93.1, 158.43 51.27, 202.64 -0.51 M80.46 139.54 C109.34 106.13, 138.54 72.5, 201.66 0.43 M85.29 139.05 C116.85 102.3, 154.05 61.55, 208.94 1.51 M86.58 140.13 C129.21 85.82, 174.43 33.38, 205.99 -0.65 M91.07 138.97 C131.61 96.02, 167.95 49.47, 210.59 -0.44 M90.57 140.49 C129.84 95.84, 169.33 50.85, 212.33 0.5 M94.86 140.53 C134.74 97.61, 171.68 51.95, 218.78 -2.3 M95.65 140.02 C137.96 90.89, 178.36 44.52, 217.4 -0.29 M103.14 141.18 C129.13 110.15, 153.92 77.7, 222.42 -1.47 M100.33 139 C147.28 86.81, 192.65 35.03, 223.04 0.43 M107.8 140.35 C156.12 85.74, 206.17 29.3, 227.26 -1.79 M106.25 138.56 C145.05 96.61, 180.69 55.6, 228.95 -1.34 M110.88 138.58 C154.36 93.38, 192.02 49.07, 234.67 -0.41 M112.43 139.67 C158.11 86.11, 205.77 31.26, 234.02 0.93 M117.76 138.56 C156.59 93.01, 198.6 50.55, 240.08 -0.04 M117.06 139.03 C153.93 97.16, 190.04 57.34, 238.44 0.03 M121.79 140.2 C165.54 88.86, 211.54 37.68, 241.04 2.62 M121.78 140.16 C167.69 87.11, 212.22 36.66, 242.26 1.49 M129.53 137.65 C161.53 98.69, 198.29 59.65, 239.77 9.27 M127.47 139.23 C158.22 103.74, 187.86 67.8, 241.64 7.77 M133.42 138.45 C163.65 102.51, 193.73 70.35, 243.69 13.16 M132.5 140.17 C156.11 110.27, 180.29 83.18, 241.85 14.46 M136.97 140.5 C168.92 105.93, 197.49 74.7, 242.15 19.34 M138.56 138.52 C163.95 110.19, 190.84 79.51, 241.72 20.29 M143.43 139.18 C181.61 94.13, 221.97 50.81, 242.33 26.57 M142.9 140.46 C169.25 110.92, 195.4 80.82, 242.02 26.11 M148.37 141.14 C185.2 100.06, 220.43 57.12, 241.13 30.75 M149.47 139.54 C168.53 116.43, 189.44 93.37, 241.03 32.06 M155.58 139.61 C183.1 108.46, 211.34 74.81, 243.19 38.15 M154.49 139.83 C180.19 109.95, 206.15 82.02, 241.13 39.82 M159.1 139.75 C184.48 108.4, 212.35 80.13, 243.42 45.27 M159.01 140.23 C175.18 120.56, 191.55 102.31, 242.86 44.34 M165.72 138.4 C182.42 120.15, 200.59 101.91, 241.64 51.88 M165.01 140.12 C191.34 109, 217.13 77.94, 242.28 51.79 M169.65 141.2 C192.76 111.45, 218.14 81.52, 241.19 56.84 M170.71 139.35 C196.17 108.23, 223.72 77.65, 241.04 57.24 M175.78 137.59 C196.04 112.62, 221.3 86.21, 242.8 63.4 M175.36 139.22 C198.35 112.72, 220.58 87.33, 240.95 62.97 M182.26 137.97 C200.41 117.09, 218.66 97.1, 240.66 70.53 M180.49 140.44 C194.08 126.34, 205.23 111.49, 241.56 69.62 M187.79 140.65 C203.75 122.51, 220.07 102.03, 242.86 74.73 M186.69 140.08 C196.78 126.08, 209.62 111.81, 241.29 74.91 M190.25 140.99 C203.3 127.84, 211.65 115.19, 240.17 81.08 M190.93 139.58 C205.04 125.13, 217.9 110.05, 241.68 80.65 M197.9 138.44 C213.89 122.36, 227.49 101.26, 242.48 89.07 M197.31 139.67 C213.72 118.86, 231.88 98.96, 240.52 87.43 M200.06 141.58 C210.06 130.3, 220.16 119.07, 242.83 91.89 M202.35 140.4 C216.76 122.24, 233.98 102.35, 241.47 93.81 M206.31 139.22 C221.19 124.99, 235.41 109.08, 243.36 101.77 M207.77 140.04 C218.59 127.53, 228.82 113.42, 242.53 100.63 M213.19 141.45 C224.94 126.74, 232.03 116.3, 241.82 105.75 M211.77 139.1 C219.97 132.44, 225.27 124.08, 242.24 106.62 M219.36 138.67 C226.1 128.82, 233.73 122.86, 242.32 110.82 M217.8 139.26 C225.38 130.53, 234.53 120.99, 240.93 112.44 M224.28 138.73 C227.78 133.48, 231.29 128.59, 241.78 119.64 M223.88 139.39 C231.59 131.37, 237.75 122.42, 240.84 118.38 M227.43 137.88 C231.35 134.03, 233.26 134.22, 239.96 123.9 M229.34 138.46 C234.52 132.78, 239.56 126.89, 242.71 124.57 M234.51 138.61 C235.95 136.79, 238.64 133.71, 242.69 131.21 M233.97 139.57 C236.85 136.85, 238.41 134.09, 241.42 130.34" stroke="#ced4da" stroke-width="0.5" fill="none"></path><path d="M-0.27 1.6 C90.14 0.53, 181.31 0.08, 240.54 0.57 M-0.57 -0.52 C75 -2.38, 148.92 -2.08, 238.96 0.75 M240.25 1.42 C237.98 41, 241.09 77.68, 239.83 137.51 M239.78 0.39 C238.05 42.85, 237.38 86.42, 238.19 138.22 M239.61 140.47 C190.59 138.36, 141.38 138.36, 1.46 138.67 M238.64 139.77 C162.59 139.88, 85.81 138.45, 0.41 139.33 M1.6 138.9 C0.37 90.12, 1.39 40.88, -1.33 0.91 M-0.61 139.8 C-1.17 98.47, -1.25 56.8, -0.73 -0.52" stroke="#c92a2a" stroke-width="1" fill="none"></path></g><g transform="translate(333.6951064012333 356.8828735199081) rotate(0 114.5 17)"><text x="114.5" y="27" font-family="Helvetica, Segoe UI Emoji" font-size="28px" fill="#c92a2a" text-anchor="middle" style="white-space: pre;" direction="ltr">送信中止</text></g><g stroke-linecap="round" transform="translate(720.002260413519 303.0878865748974) rotate(0 119.49999999999994 69.5)"><path d="M0 0 C0 0, 0 0, 0 0 M0 0 C0 0, 0 0, 0 0 M0.28 5.71 C1.19 5.35, 2.38 3.15, 4.79 0.63 M-0.64 6.55 C0.59 5.34, 2.02 4.05, 4.71 0.43 M0.56 10.57 C3.71 7.72, 8.83 3.09, 9.96 1.36 M0.53 12.52 C3.63 8.97, 5.74 4.62, 10.08 -0.3 M-0.32 20.1 C5.95 11.64, 9.93 4.37, 13.68 -0.55 M-0.81 17.52 C5.23 12.58, 10.6 6.35, 16.45 0.72 M-0.84 22.72 C6.4 17.26, 13.35 6.53, 22.37 1.04 M0.95 23.44 C4.26 18.39, 9.36 13.48, 22.26 0.32 M1.06 29.72 C10.69 19.33, 20.79 7.75, 26.42 0.1 M-0.1 29.61 C4.8 24, 12.3 17.09, 26.05 -0.1 M-1.17 35.83 C13.43 22.2, 25.29 6.75, 30 -1.85 M-0.37 36.2 C11.26 23.91, 21.01 12.69, 32.55 -0.17 M-0.66 44.17 C9.59 31.05, 21.28 19.46, 35.49 -0.32 M-0.1 42.53 C8.22 33.03, 16.25 24.86, 36.83 0.39 M-1.1 49.61 C9.7 37.95, 19.11 23.69, 40.76 1.19 M0.19 48.29 C16.53 29.79, 32.37 10.98, 42.05 -0.35 M-0.26 56.49 C9.97 42.87, 19.46 30.64, 47.77 -1.7 M0.85 54.29 C16.89 34.94, 32.27 17.73, 47.77 0.55 M-1.28 61.79 C15.27 47.22, 29.5 31.47, 51.83 -1.26 M-0.64 61.4 C20.23 38.46, 42.09 14.31, 53.69 0.78 M-0.11 68.87 C12.73 53.86, 23.4 36.79, 58.24 1.48 M-0.54 67.24 C15.1 51.57, 28.36 34.2, 58 -0.2 M-1.61 74.78 C11.69 56.14, 25.73 42.27, 63.48 1.76 M0.73 73.47 C24.35 44.42, 47.49 17.6, 63.1 0.78 M-1.5 79.64 C24.61 50.75, 51.69 19.86, 67.94 -1.84 M-0.88 79.98 C22.84 53.67, 45.74 28.64, 67.91 -0.41 M0.1 86.37 C26.1 55.32, 52.34 27.24, 73.07 1.64 M1.11 84.55 C21.49 59.69, 42.32 36.35, 73.62 0.74 M1.4 89.82 C23.87 61.38, 49.13 33.37, 78.06 -1.35 M0.95 90.92 C19.16 70.84, 38.54 48.79, 80.04 0.41 M1.47 96.53 C21.43 74.2, 39.17 53.47, 85.06 0.15 M-1.17 98.44 C22.78 73.4, 45.26 46.57, 85.29 0.33 M-1.81 102.07 C20.02 81.24, 43.63 56.76, 91.84 0.71 M-0.58 104.29 C33.2 62.92, 67.45 26.07, 90.17 0.82 M0.2 110.37 C33.6 68.92, 67.64 30.26, 96.99 -0.5 M-0.57 110.74 C34.07 69.51, 69.63 29.62, 95.86 -1.27 M-0.48 115.46 C29.54 81.57, 56.45 50.67, 100.62 -0.53 M0.73 115.83 C21.3 92.12, 42.09 66.33, 100.27 0.42 M0.11 120.64 C36.32 76.51, 74.27 32.68, 105.51 0.29 M0.65 122.37 C23.69 93.52, 45.22 66.46, 105.77 -0.31 M-1.49 128.21 C23.08 100.52, 48.01 75.04, 109.85 1.49 M-0.91 128.62 C40.06 81.09, 79.53 34.76, 111.51 0.84 M-0.25 134.79 C41.24 88.35, 81.86 39.89, 115.71 0.26 M0.09 133.54 C23.68 106.58, 46.36 80.67, 116.52 1.26 M0 139.94 C38.78 95.58, 79.83 47.64, 121.06 -1.28 M1.06 140.24 C35.64 99.81, 71.78 57.62, 121.27 0.77 M7.7 138.86 C30.12 107.03, 55.25 78.11, 125.72 1.32 M5.49 138.7 C38.15 101.95, 70.39 64.54, 126.27 -0.23 M10.47 141.12 C48.51 95.78, 89.14 49.91, 133.89 -1.46 M10.47 139.28 C40.19 105.12, 70.65 72.79, 132.14 -1.04 M15.39 138.58 C49 98.22, 87.61 59.7, 136.82 0.04 M16.55 138.66 C51.44 98.96, 85 60.29, 136.93 -0.65 M23.13 139.77 C48.93 112.12, 72.47 80.45, 144.05 1.7 M22.46 139.01 C52.83 102.11, 86.53 63.96, 142.89 -0.82 M26.43 141.65 C64.66 96.68, 99.29 54.88, 150.03 -1.35 M27.23 139.8 C64.13 96.39, 103.11 50.78, 147.75 -0.07 M32.12 138.98 C64.88 105.64, 96.2 70.59, 153.36 0.38 M32.74 139.93 C59.77 107.49, 89.07 77.27, 153.51 -0.74 M37.06 139.6 C68.33 104.02, 98.47 68.79, 159.45 -0.22 M37.29 139.01 C81.03 92.31, 122.3 43.71, 159.7 1 M44.68 138.25 C90.15 80.57, 138.63 24.92, 163.72 0.18 M42.71 140.06 C67.06 110.78, 90.17 82.63, 164.18 0.08 M49.67 139.65 C85.85 98.67, 122.22 57.9, 170.29 0.46 M48.67 140.48 C92.46 91.48, 134.33 42.61, 168.44 0.57 M55.15 139.51 C81.01 105.64, 111.53 72.5, 175.15 -1.93 M54.46 140.01 C81.76 105.68, 108.76 72.93, 174.32 0.57 M57.38 139.66 C89.48 103.48, 122.84 68.3, 180.86 2.13 M59.23 139.7 C86.37 109.67, 112.3 78.08, 179.34 0.23 M62.94 141.06 C97.87 99.47, 135.49 62.85, 183.74 0.45 M63.81 139.89 C92.61 107.37, 121.29 77.34, 185.5 0.69 M69.41 138.91 C114.54 88.48, 157.6 40.65, 192.55 0.64 M68.98 139.2 C96.52 108.32, 125.76 76.36, 190.49 0.08 M74.58 139.64 C103.59 106.61, 135.88 71.22, 195.68 1.12 M75.27 138.41 C102.88 107.13, 131.02 74.05, 196.53 0.46 M81.09 140.06 C108.77 105.59, 140.97 70.36, 199.85 0.24 M79.18 139.55 C125.96 85.9, 173.2 30.47, 201.64 -0.2 M85.68 140.36 C132.13 85.53, 177.37 33.16, 205.26 -0.71 M85.04 139.78 C128.53 88.69, 174.05 38.54, 206.41 -1.05 M91.82 139.2 C136.76 84.36, 186.67 29.99, 212.33 -0.39 M91.25 140.4 C125.27 102.25, 160.17 62.5, 211.28 -0.4 M94.94 138.76 C141.37 90.94, 183.18 40.41, 216.85 1.58 M96.05 138.78 C130.45 100.92, 164.83 62.12, 217.34 -0.74 M103.1 139.82 C137.76 101.61, 171.34 60.13, 220.67 1.79 M101.84 139.4 C129.3 108.22, 155.51 77.63, 221.6 -0.76 M106.18 138.79 C149.16 89.91, 192.64 39.39, 226.92 0 M106.91 139.73 C143.09 97.64, 178.38 56.13, 227.74 -0.44 M112.54 138.81 C139.47 107.15, 170.5 73.82, 234.65 0.27 M111.79 139.28 C148.3 96.5, 187.24 52.68, 233.47 -0.98 M118.27 138.79 C161.93 87.07, 208.61 38.47, 237.39 -1.26 M116.96 139.51 C152.36 98.92, 188.4 57.07, 238.56 0.81 M123.82 140.48 C166.26 88.69, 208.87 39.96, 243.15 3.19 M123.16 138.82 C167.83 88.1, 211.65 37.34, 241.52 3.06 M127.21 137.52 C167.45 91.53, 208.84 46.66, 241.01 9.41 M127.2 138.52 C172.11 88.29, 216.62 36.52, 241.71 9.04 M132.72 138.53 C155.97 110.24, 181.4 82.48, 241.58 14.39 M132.2 139.81 C155.88 112.06, 179.78 84.89, 242.48 13.31 M140.08 140.14 C163.98 110.67, 186.39 85.27, 241.82 20.49 M139.38 139.72 C169.29 105.58, 197.42 72.02, 241.49 19.79 M145.13 138.08 C182.61 95.65, 219.55 49.66, 240.85 25.49 M144.35 140.12 C179.84 99, 214.88 58.82, 241.21 26.66 M148.4 140.97 C175.51 111.06, 201.34 80.65, 239.93 33.85 M148.26 140.4 C176.99 107.42, 202.84 77.23, 242.4 33.62 M155.02 137.64 C174.64 114.49, 196.03 88.83, 240.42 38.08 M155.29 138.67 C185.24 106.06, 214.44 73.82, 240.72 40.09 M160.75 138.47 C192.99 104.06, 221.68 65.58, 242.3 46.53 M159.3 140.08 C185.88 110.8, 211.85 80.72, 242.86 44.93 M166.46 139.15 C182.2 119.54, 194.75 104.74, 242.88 52.44 M165.87 140.41 C192.9 105.46, 222.41 73.41, 241.77 50.4 M168.84 141.79 C196.49 110.25, 220.62 82.13, 243.31 57.75 M169.67 140.13 C190.14 114.75, 213.19 89.47, 240.84 57.91 M175.59 137.93 C196 118.33, 214.54 93.56, 242.55 62.46 M175.16 139.33 C196.2 114.72, 217.02 92.05, 242.45 64.18 M180.12 141.69 C194.43 123.22, 207.02 106.72, 241.38 67.87 M179.92 139.7 C201.22 114.79, 224.55 89.48, 241.49 70.54 M184.69 140.73 C206.4 116.11, 227.44 92.7, 242.86 74.46 M185.43 139.48 C202.17 121.32, 217.51 103.24, 242.56 75.56 M191.14 141.39 C208.72 118.38, 226.36 100.32, 241.09 80.91 M190.3 139.48 C202.36 127.58, 212.58 114.05, 242.19 82.1 M196.08 139.69 C210.99 125.25, 221.36 109.52, 241.68 89.92 M197.13 139.97 C208.07 126.48, 217.96 113.83, 241.98 87.98 M201.55 138.46 C210.5 128.78, 220.81 116.94, 241.76 95.54 M201.74 138.72 C211.22 129.42, 218.53 119.03, 242.17 93.19 M206.23 138.35 C219.13 123.03, 232.35 108.44, 239.92 100.46 M207.96 139.93 C216.12 129.79, 225.3 120.19, 242.21 100.15 M212.09 138.93 C218.69 129.85, 228.64 122.74, 242.79 103.85 M212.91 140.22 C221.74 128.34, 230.21 119.23, 242.86 105.41 M219.65 137.69 C224.6 129.24, 232.9 120.66, 243.65 110.38 M217.79 139.56 C225.39 129.58, 234.29 120.85, 241.51 111.61 M222.59 139.19 C227.91 134.14, 233.27 126.48, 241.03 118.08 M223.15 139.3 C226.58 134.97, 230.29 130.4, 242.27 119.2 M226.98 138.05 C230.6 135.99, 233.49 130.25, 240.65 123.61 M229.69 139.08 C233.19 134.84, 235.43 130.37, 242.52 124.68 M233.88 139.88 C237.48 135.56, 240.9 131.52, 242.68 129.98 M233.61 139.15 C236.11 137.06, 238.39 133.88, 242.17 130.09" stroke="#ced4da" stroke-width="0.5" fill="none"></path><path d="M-1 0.85 C56.9 -0.96, 113.7 -0.09, 240.01 0.65 M-0.61 0.41 C93.82 -0.35, 185.26 0.36, 239.3 0.11 M238.85 -0.39 C241.99 33.17, 239.68 69.32, 239.34 139.62 M238.16 -0.14 C238.9 42.6, 239.19 84.78, 238.57 138.73 M239.14 138.51 C166.02 139.3, 93.99 138.32, 1.3 140.44 M239.4 138.52 C167.83 140.82, 98.32 140.21, -0.45 139.53 M0.68 137.86 C0.93 85.86, -0.51 31.28, -0.21 1.13 M-0.15 138.11 C1.29 109.41, 0.85 80.69, -0.33 -0.3" stroke="#c92a2a" stroke-width="1" fill="none"></path></g><g transform="translate(725.002260413519 355.0878865748974) rotate(0 114.49999999999994 17)"><text x="114.5" y="27" font-family="Helvetica, Segoe UI Emoji" font-size="28px" fill="#c92a2a" text-anchor="middle" style="white-space: pre;" direction="ltr">送信中止</text></g><g transform="translate(616.168735627334 36.28522341802079) rotate(0 20.5 15)"><text x="20.5" y="24" font-family="Helvetica, Segoe UI Emoji" font-size="20px" fill="#000000" text-anchor="middle" style="white-space: pre;" direction="ltr">送信</text></g><g transform="translate(1012.8608504746512 34.4902364730101) rotate(0 20.5 15)"><text x="20.5" y="24" font-family="Helvetica, Segoe UI Emoji" font-size="20px" fill="#000000" text-anchor="middle" style="white-space: pre;" direction="ltr">送信</text></g><g stroke-linecap="round" transform="translate(347.9494201386928 543.1834517137972) rotate(0 42.80610402220515 27.750492284758735)"><path d="M0 0 C0 0, 0 0, 0 0 M0 0 C0 0, 0 0, 0 0 M-0.65 6.97 C1.1 3.66, 3.28 2.23, 4.57 -0.25 M-0.08 6.68 C1.27 4.02, 3.64 1.79, 5 0.32 M1.18 11.95 C2.9 9.16, 7.59 4.48, 11.45 1.29 M0.43 12.36 C2.05 9.87, 5.43 5.34, 11.21 0.52 M-1.8 18.43 C2.16 13.06, 5.64 9.55, 15.61 2.2 M0.75 18.56 C4.4 14.11, 6.97 8.44, 15.05 1.19 M-0.41 24.35 C5.07 19, 9.29 12.32, 19.41 -1.91 M0.2 24.13 C8.05 15.82, 14.68 6.87, 20.36 -1.05 M2 31.1 C7.95 24.03, 13.67 17.06, 27.93 -1.16 M0.14 31.45 C10.25 19.99, 20.68 7.1, 26.37 0.45 M-1.85 36.31 C11.74 24.92, 22.04 12.18, 32.5 -1.02 M0.07 36.2 C12.64 21.77, 24.66 7.53, 32.76 -0.49 M-0.9 43.12 C10.98 29.53, 20.18 18.96, 35.54 1.15 M0.17 41.65 C11.69 28.73, 24.88 15.32, 36.09 0.3 M-1.81 47.54 C9.43 38.36, 18.69 27.14, 43.84 1.11 M-1.05 47.93 C13.63 32.36, 28.07 15.12, 41.6 -0.76 M-0.43 56.19 C13.11 40.22, 29.69 24.08, 49.16 -1.12 M0.32 54.64 C15.64 37.39, 31.57 18.16, 47.48 0.02 M1.53 58.42 C19.51 37.55, 35.39 18.83, 53.46 -0.29 M2.52 58.91 C15.5 43.92, 28.59 28.88, 52.64 -0.45 M8.42 57.34 C23.44 37.73, 39.97 21.56, 57.6 1.22 M8.66 57.33 C25.83 36.99, 43.76 15.59, 59.02 0.94 M11.36 56.95 C26.75 42.86, 41.57 25.91, 62.47 -1.6 M12.97 56.99 C25.28 43.26, 38.71 29.23, 63.35 -0.56 M18.64 57.12 C39.61 34.3, 55.82 12.37, 69.76 -1.26 M19.86 57.31 C32.52 41.36, 46.38 27.56, 69.42 -0.56 M25.83 59.67 C37.34 41.87, 51.38 26.35, 75.08 -0.78 M23.55 58.16 C35.64 42.69, 47.93 29.65, 73.89 0.42 M28.27 58.21 C44.98 41.45, 59.22 22.75, 80.67 1.43 M29.23 58.45 C41.56 42.64, 54.45 29.29, 78.56 -0.06 M33.07 57.42 C55.65 34.04, 73.75 14.68, 84.58 0.61 M34.58 57.42 C48.94 40.24, 63.55 22.85, 84.14 -0.44 M41.06 58.42 C52.15 43.37, 64.43 26.49, 87.43 2.96 M40.38 58.86 C56.36 38.8, 72.85 20.96, 88.57 2.17 M45.31 58.49 C58.01 42.97, 70.76 27.94, 88.16 7.71 M44.6 58.79 C55.13 47.44, 64.54 36.68, 89.44 8.8 M49.86 56.22 C58.61 48.39, 66.45 38.99, 88.69 13.67 M49.69 57.48 C63.26 42.83, 77.16 25.99, 88.19 15.2 M56.87 58.54 C65.9 47.21, 75.46 34.8, 86.58 22.03 M55.35 58.36 C66.34 44.56, 78.49 31.5, 87.36 21.51 M61.3 57.76 C69.36 46.87, 76.33 40.02, 90.26 27.96 M59.85 58.05 C69.73 47.54, 79.97 35.05, 87.45 25.78 M66.15 58.65 C73.79 52.45, 77.69 42.41, 89.01 33.92 M66.76 57.26 C71.81 50.38, 78.64 42.33, 87.47 32.13 M73.08 59.55 C76.15 51.35, 83.19 41.72, 87.51 37.44 M72.28 58.83 C77.22 52.3, 83.97 43.99, 89.05 38.52 M77.56 59.08 C81.44 54.85, 81.53 51.46, 88.44 44.31 M77.84 58.5 C79.65 54.43, 82.1 52.04, 87.84 44.71 M82.92 58.28 C83.6 56.51, 85.15 54.27, 87.63 51.54 M82.07 57.87 C83.31 56.99, 84.22 55.59, 87.63 51.52" stroke="#ced4da" stroke-width="0.5" fill="none"></path><path d="M-0.44 -1.86 C26.87 0.93, 58.94 -1.13, 86.41 0.63 M-0.42 -0.11 C19.88 -0.09, 39.8 -0.22, 86.49 -0.27 M84.71 -0.61 C85.76 20.08, 86.29 42.57, 86.4 56.65 M85.11 0.3 C85.97 15.5, 85.25 29.47, 85.5 54.86 M87.56 57.04 C55.05 55.16, 28.81 54.67, -1.46 54.2 M86.32 55.5 C56.74 57, 25.94 55.63, -0.59 55.57 M-1.8 53.55 C0.07 35.96, -1.1 13.71, -1.97 -0.58 M-0.21 54.87 C-0.65 39.11, -1.39 23.73, 0.09 -0.88" stroke="#c92a2a" stroke-width="1" fill="none"></path></g><g transform="translate(447.6995972566422 555.151489691019) rotate(0 70.5 15)"><text x="70.5" y="24" font-family="Helvetica, Segoe UI Emoji" font-size="20px" fill="#000000" text-anchor="middle" style="white-space: pre;" direction="ltr">Outlookの処理</text></g><g stroke-linecap="round" transform="translate(678.7175606782778 547.5261633162812) rotate(0 40.520574419538775 28.792741517306126)"><path d="M0 0 C0 0, 0 0, 0 0 M0 0 C0 0, 0 0, 0 0 M-0.95 6.09 C1.86 4.77, 4.19 1.5, 5.02 -0.15 M-0.54 6.24 C1.21 4.64, 2.58 3.73, 5.24 0.54 M-1.45 11.19 C4.39 6.11, 8.03 1.23, 9.63 -0.12 M0.78 11.47 C3.24 9.74, 5.65 7.07, 10.09 0.21 M0.02 18.89 C7.61 12.49, 11.19 4.33, 15.22 1.16 M0.11 18.16 C3.91 12.67, 8.73 8.91, 15.56 -0.1 M2.2 24.57 C9.87 15.76, 17.54 5.17, 20.71 0.27 M0.16 23.65 C4.95 17.68, 11.45 11.14, 21.77 0.57 M-0.43 29.19 C9 19.78, 15.67 14.45, 27.76 -0.06 M-0.47 29.89 C6.81 23.41, 12.63 16.08, 25.55 -0.22 M-2.1 35.61 C8.1 26.79, 18.21 14.9, 31.18 1.45 M-0.45 37.55 C5.56 28.66, 12.05 22.17, 31.18 -0.39 M-0.26 41.7 C6.48 32.81, 18 25.17, 35.45 -0.34 M1.04 42.16 C7.89 32.91, 15.89 24.32, 36.61 -0.26 M0.46 47.7 C12.37 30.99, 29.37 15.34, 43.84 0.1 M-0.14 49.35 C16.92 29.65, 33.22 11.51, 43.18 -0.66 M0.71 53.98 C8.99 42.27, 21.79 28.21, 47.14 1.98 M0.06 55.49 C16.67 35.74, 35.07 15.98, 47.95 0.13 M1.14 57.86 C14.95 41.5, 28.03 24.48, 52.83 -0.69 M2.09 58.47 C19.46 37.69, 35.95 18.23, 53.46 0.26 M8.29 58.45 C16.8 45.48, 30.02 35.19, 57.77 -0.07 M7.31 59.38 C24.37 39.1, 41.74 18.07, 58 -0.66 M13.94 61.22 C30.93 40.95, 48.87 20.21, 65.39 -1.42 M10.98 59.06 C27.39 41.6, 42.61 25.97, 63.42 0.39 M16.24 58.51 C37.31 37.34, 54.1 15.59, 70.38 -0.02 M17.98 59.45 C34.69 39.69, 50.89 18.9, 69.39 0.81 M23.77 57.41 C41.73 37.14, 61.15 15.9, 75.86 -0.16 M22.4 59.42 C35.53 42.97, 50.5 28.99, 75.17 0.33 M28.06 57.48 C47.3 38.49, 62.57 17.25, 78.09 -0.01 M28.69 59.39 C40.42 45.54, 50.09 34.16, 79.94 0.03 M32.26 57.92 C51.76 37.08, 69.04 14.52, 81.68 3.66 M33.94 58.37 C44.6 45.91, 54.23 33.88, 82.56 2.49 M40.32 58.55 C53.4 45.63, 62.76 31.57, 83.57 6.78 M39.67 59.88 C54.89 40.12, 70.48 22.98, 83.14 7.07 M45.73 58.91 C53.58 46.14, 65.53 34.61, 82.83 14.3 M44.09 58.99 C55.5 45.31, 66.63 32.68, 83.51 13.08 M48.66 59.32 C62.05 45.18, 73.15 31.93, 84.09 20.76 M49.88 58.18 C57.76 50.16, 66.61 40.47, 82.18 20.26 M52.64 59.92 C62.73 50.26, 73.18 36.84, 83.43 27.1 M54.51 58.43 C63.9 49.14, 73.7 37.8, 82.79 26.53 M61.8 57.78 C63.28 55.19, 71.2 46.65, 84.32 31.98 M59.97 59.07 C66.3 51.29, 71.91 43.37, 83.75 33.18 M65.52 57.91 C68.32 55.37, 73.22 48.97, 82.2 37.58 M65.08 58.87 C73.18 50.66, 78.48 42.42, 83.3 37.6 M71.55 58.38 C72.51 55.77, 75.65 51.37, 85.01 44.67 M71.26 57.94 C75.77 53.2, 78.92 48.82, 83.81 44.27 M75.32 58.13 C77.61 56.65, 80.23 53.86, 82.58 50.65 M75.27 58.85 C77.58 57.18, 79.44 55.51, 82.99 51.17" stroke="#ced4da" stroke-width="0.5" fill="none"></path><path d="M0.79 -1.58 C32.03 -0.01, 58.33 1.14, 82.43 -1.62 M0 -0.67 C15.7 0.02, 32.37 0.67, 81.98 -0.52 M81.29 1.28 C82.08 16.44, 79.73 34.53, 82.76 56.28 M81.17 0.01 C80.81 20.39, 80.3 40.54, 80.12 58.18 M81.13 58.09 C57.16 56.18, 31.56 55.73, -1.96 56.18 M81.35 58.49 C59.85 59.15, 38.33 59.24, -0.72 58.39 M1.93 57.87 C2.05 43.63, -0.75 27.6, 0.32 0.49 M-0.28 58.25 C0.3 44.71, -0.07 30.95, -0.46 0.86" stroke="#000000" stroke-width="1" fill="none"></path></g><g transform="translate(766.5819470937706 558.6264244160714) rotate(0 116 15)"><text x="116" y="24" font-family="Helvetica, Segoe UI Emoji" font-size="20px" fill="#000000" text-anchor="middle" style="white-space: pre;" direction="ltr">FlexConfirmMailの処理</text></g></svg>